<svg width="26" height="23" viewBox="0 0 26 23" xmlns="http://www.w3.org/2000/svg">
<path fill-rule="evenodd" clip-rule="evenodd" d="M8.17001 14.8501H8.17118C8.17216 14.8501 8.17314 14.8497 8.1741 14.8497H21.6435C21.975 14.8497 22.2667 14.6303 22.3577 14.3111L25.3294 3.91635C25.3934 3.69221 25.3485 3.45129 25.2082 3.26542C25.0678 3.07957 24.8482 2.97029 24.6151 2.97029H6.45674L5.9257 0.581672C5.85004 0.2418 5.54862 0 5.20033 0H0.74284C0.332556 0 0 0.33215 0 0.742586C0 1.15258 0.332556 1.48473 0.74284 1.48473H4.60449C4.69846 1.90806 7.1458 12.9154 7.28666 13.5487C6.49718 13.8916 5.94325 14.6785 5.94325 15.5923C5.94325 16.8206 6.9431 17.82 8.17194 17.82H21.6435C22.0538 17.82 22.3864 17.4874 22.3864 17.0774C22.3864 16.667 22.0538 16.3353 21.6435 16.3353H8.17194C7.76244 16.3353 7.42913 16.0019 7.42913 15.5923C7.42913 15.1836 7.76126 14.8514 8.17001 14.8501ZM23.6302 4.455L21.083 13.365H8.76789L6.78672 4.455H23.6302ZM7.42913 20.0477C7.42913 21.276 8.42898 22.2745 9.65782 22.2745C10.8868 22.2745 11.8865 21.276 11.8865 20.0477C11.8865 18.8194 10.8868 17.82 9.65782 17.82C8.42898 17.82 7.42913 18.8194 7.42913 20.0477ZM9.65782 19.3051C10.0674 19.3051 10.4007 19.6381 10.4007 20.0477C10.4007 20.4569 10.0674 20.7898 9.65782 20.7898C9.24832 20.7898 8.91489 20.4569 8.91489 20.0477C8.91489 19.6381 9.24832 19.3051 9.65782 19.3051ZM17.9289 20.0477C17.9289 21.276 18.9288 22.2745 20.1576 22.2745C21.3865 22.2745 22.3864 21.276 22.3864 20.0477C22.3864 18.8194 21.3865 17.82 20.1576 17.82C18.9288 17.82 17.9289 18.8194 17.9289 20.0477ZM20.1576 19.3051C20.5672 19.3051 20.9005 19.6381 20.9005 20.0477C20.9005 20.4569 20.5672 20.7898 20.1576 20.7898C19.7481 20.7898 19.4148 20.4569 19.4148 20.0477C19.4148 19.6381 19.7481 19.3051 20.1576 19.3051Z" fill="currentColor"/>
</svg>
