<svg width="20" height="19" viewBox="0 0 20 19" xmlns="http://www.w3.org/2000/svg">
<path fill-rule="evenodd" clip-rule="evenodd" d="M18.8505 17.576L15.8444 14.5903C15.8141 14.5601 15.775 14.5472 15.7414 14.5227C18.6687 11.0495 18.4941 5.85495 15.2089 2.59253C13.5256 0.920682 11.2877 0 8.90743 0C6.52691 0 4.28906 0.920682 2.60608 2.59253C-0.868693 6.04296 -0.868693 11.6574 2.60608 15.1078C4.28906 16.7797 6.52691 17.7004 8.90743 17.7004C11.0208 17.7004 13.0197 16.9716 14.6199 15.6387C14.6441 15.6719 14.6574 15.7097 14.6872 15.7398L17.6935 18.7252C17.8532 18.8835 18.0626 18.9626 18.272 18.9626C18.4814 18.9626 18.6911 18.8835 18.8505 18.7252C19.1704 18.4072 19.1704 17.8931 18.8505 17.576ZM8.90743 16.0754C6.96412 16.0754 5.13716 15.3234 3.76328 13.9587C0.92678 11.142 0.92678 6.5588 3.76328 3.74125C5.13716 2.37657 6.96412 1.6254 8.90743 1.6254C10.8505 1.6254 12.6777 2.37657 14.0517 3.74125C16.888 6.5588 16.888 11.142 14.0517 13.9587C12.6773 15.3234 10.8505 16.0754 8.90743 16.0754Z" fill="currentColor"/>
</svg>
