<svg width="14" height="12" viewBox="0 0 14 12" xmlns="http://www.w3.org/2000/svg">
<path d="M0.877606 5.80657L3.76784 6.88428L4.89453 10.5093C4.94352 10.7542 5.23744 10.8032 5.43339 10.6563L7.04995 9.33362C7.19691 9.18666 7.44185 9.18666 7.63779 9.33362L10.528 11.4401C10.724 11.587 11.0179 11.489 11.0669 11.2441L13.2223 0.956874C13.2713 0.71194 13.0263 0.467008 12.7814 0.564982L0.877606 5.16974C0.583685 5.26772 0.583685 5.7086 0.877606 5.80657ZM4.74758 6.34542L10.43 2.86736C10.528 2.81837 10.626 2.96534 10.528 3.01432L5.87427 7.37415C5.72731 7.52111 5.58034 7.71706 5.58034 7.96199L5.43339 9.13767C5.43339 9.28463 5.18845 9.33362 5.13946 9.13767L4.55162 6.98225C4.40466 6.73732 4.50264 6.4434 4.74758 6.34542Z" fill="currentColor"/>
</svg>
