<svg width="14" height="14" viewBox="0 0 14 14" xmlns="http://www.w3.org/2000/svg">
<path d="M11.554 2.58215C10.3122 1.34465 8.65644 0.65715 6.9087 0.65715C3.27525 0.65715 0.331698 3.59048 0.331698 7.21132C0.331698 8.35715 0.65365 9.50298 1.20557 10.4655L0.285706 13.8572L3.78118 12.9405C4.74703 13.4447 5.80487 13.7197 6.9087 13.7197C10.5422 13.7197 13.4857 10.7863 13.4857 7.16548C13.4397 5.46965 12.7958 3.81965 11.554 2.58215ZM10.0822 9.54882C9.94424 9.91548 9.30034 10.2821 8.97839 10.328C8.70243 10.3738 8.33449 10.3738 7.96654 10.2822C7.73658 10.1905 7.41463 10.0988 7.04668 9.91548C5.39093 9.22798 4.33309 7.57798 4.24111 7.44048C4.14912 7.34882 3.55121 6.56965 3.55121 5.74465C3.55121 4.91965 3.96515 4.55298 4.10313 4.36965C4.24111 4.18632 4.42508 4.18632 4.56306 4.18632C4.65504 4.18632 4.79302 4.18632 4.88501 4.18632C4.97699 4.18632 5.11497 4.14048 5.25295 4.46132C5.39093 4.78215 5.71288 5.60715 5.75887 5.65298C5.80487 5.74465 5.80487 5.83632 5.75887 5.92798C5.71288 6.01965 5.66689 6.11132 5.5749 6.20298C5.48292 6.29465 5.39093 6.43215 5.34494 6.47798C5.25295 6.56965 5.16097 6.66132 5.25295 6.79882C5.34494 6.98215 5.66689 7.48632 6.17281 7.94465C6.81672 8.49465 7.32264 8.67798 7.50661 8.76965C7.69058 8.86132 7.78257 8.81548 7.87455 8.72382C7.96654 8.63215 8.28849 8.26548 8.38048 8.08215C8.47247 7.89882 8.61044 7.94465 8.74842 7.99048C8.8864 8.03632 9.71428 8.44882 9.85226 8.54048C10.0362 8.63215 10.1282 8.67798 10.1742 8.72382C10.2202 8.86132 10.2202 9.18215 10.0822 9.54882Z" fill="currentColor"/>
</svg>
