<svg width="52" height="52" viewBox="0 0 52 52" fill="none" xmlns="http://www.w3.org/2000/svg">
<path d="M43.2333 18.7222H30.8487L33.57 11.9167C33.9522 10.9654 34.0463 9.92281 33.8405 8.91851C33.6348 7.91422 33.1384 6.99256 32.413 6.26817C32.0071 5.86161 31.5174 5.54844 30.978 5.3505C30.4387 5.15255 29.8626 5.07458 29.2901 5.12202C28.7175 5.16945 28.1622 5.34116 27.6627 5.62518C27.1633 5.90919 26.7318 6.29868 26.3983 6.76651L19.1985 16.8437C18.1259 18.3479 16.9301 19.7604 15.6235 21.0665L14.7113 21.9787C14.2126 20.8398 13.3372 19.9072 12.2322 19.3374C11.1272 18.7676 9.85975 18.5953 8.64271 18.8494C7.42566 19.1034 6.33307 19.7685 5.54833 20.7328C4.76359 21.6971 4.33447 22.9021 4.33301 24.1453V41.4787C4.33447 42.722 4.76359 43.9269 5.54833 44.8912C6.33307 45.8556 7.42566 46.5206 8.64271 46.7747C9.85975 47.0287 11.1272 46.8564 12.2322 46.2866C13.3372 45.7168 14.2126 44.7842 14.7113 43.6453L15.9008 44.837C16.5541 45.4931 17.3308 46.0133 18.1861 46.3677C19.0414 46.7221 19.9584 46.9036 20.8842 46.9018H34.9263C36.0266 46.902 37.1034 46.5832 38.0263 45.9841C38.9491 45.385 39.6786 44.5312 40.1263 43.5262L47.0163 28.0193C47.4475 27.0419 47.6689 25.985 47.6663 24.9167V23.1595C47.6658 21.9836 47.1987 20.8559 46.3676 20.024C45.5365 19.1921 44.4093 18.7239 43.2333 18.7222ZM9.74967 44.7222C8.88772 44.7222 8.06107 44.3798 7.45158 43.7703C6.84208 43.1608 6.49967 42.3341 6.49967 41.4722V24.1388C6.49967 23.2769 6.84208 22.4502 7.45158 21.8407C8.06107 21.2313 8.88772 20.8888 9.74967 20.8888C10.6116 20.8888 11.4383 21.2313 12.0478 21.8407C12.6573 22.4502 12.9997 23.2769 12.9997 24.1388V41.4722C12.9997 42.3341 12.6573 43.1608 12.0478 43.7703C11.4383 44.3798 10.6116 44.7222 9.74967 44.7222ZM45.4997 24.9167C45.5009 25.6841 45.3399 26.4431 45.0273 27.144L38.133 42.6335C37.8564 43.2553 37.4055 43.7835 36.8348 44.1543C36.2641 44.525 35.5982 44.7222 34.9177 44.7222H20.8907C20.2468 44.7248 19.6088 44.5995 19.0137 44.3537C18.4187 44.1078 17.8783 43.7463 17.424 43.29L15.1663 41.0237V24.5873L17.1553 22.5983C18.5468 21.2073 19.8208 19.7036 20.9643 18.1025L28.1663 8.02751C28.3159 7.81648 28.5097 7.64064 28.7342 7.51227C28.9588 7.38391 29.2086 7.30612 29.4663 7.28434C29.7252 7.26366 29.9855 7.29924 30.2294 7.38862C30.4732 7.47801 30.6948 7.61908 30.879 7.80217C31.304 8.22685 31.5949 8.76704 31.7154 9.35563C31.836 9.94422 31.781 10.5553 31.5572 11.1128L28.2422 19.4047C28.1768 19.5689 28.1525 19.7467 28.1716 19.9225C28.1907 20.0983 28.2525 20.2667 28.3517 20.4131C28.4508 20.5594 28.5843 20.6793 28.7405 20.7623C28.8966 20.8452 29.0707 20.8887 29.2475 20.8888H43.2312C43.8324 20.8888 44.4091 21.1275 44.8345 21.5525C45.2598 21.9775 45.4991 22.5539 45.4997 23.1552V24.9167Z" fill="white"/>
</svg>
