<svg width="44" height="44" viewBox="0 0 44 44" fill="none" xmlns="http://www.w3.org/2000/svg">
<g clip-path="url(#clip0_11_3650)">
<path d="M43.3869 24.7651C41.58 17.0864 37.5628 12.6372 34.6617 10.3133C38.2998 10.5876 39.4709 12.1012 39.5054 12.1466C39.6158 12.3043 39.7838 12.4122 39.9731 12.4471C40.1623 12.482 40.3577 12.441 40.5171 12.3332C40.6765 12.2253 40.7871 12.0591 40.825 11.8704C40.8629 11.6817 40.8251 11.4856 40.7198 11.3246C40.667 11.2454 39.6484 9.79043 36.6865 9.12456C37.0607 8.81689 37.3641 8.432 37.5759 7.99622C37.7876 7.56045 37.9027 7.08407 37.9133 6.59969C37.8655 5.80744 37.5686 5.05055 37.065 4.43711C36.5614 3.82366 35.8768 3.38502 35.1091 3.18383C35.1736 2.65436 35.2066 2.12049 35.2073 1.58736C35.2069 1.34531 35.1467 1.10712 35.0319 0.894036C34.917 0.680948 34.7513 0.499588 34.5493 0.36613C34.3474 0.232671 34.1156 0.151263 33.8746 0.129167C33.6335 0.10707 33.3908 0.144972 33.1679 0.239492C32.7976 0.407426 32.4537 0.628159 32.1471 0.894359C31.969 1.07738 31.7557 1.22242 31.52 1.32073C31.2843 1.41904 31.0312 1.46858 30.7758 1.46636C30.5208 1.46815 30.2681 1.41841 30.0328 1.32012C29.7976 1.22183 29.5846 1.07701 29.4067 0.894359C28.7835 0.318781 27.9663 -0.000854492 27.1179 -0.000854492C26.2696 -0.000854492 25.4524 0.318781 24.8292 0.894359C24.6511 1.07776 24.4375 1.22304 24.2016 1.32138C23.9656 1.41971 23.712 1.46903 23.4564 1.46636C23.2015 1.46848 22.9488 1.41888 22.7136 1.32056C22.4784 1.22225 22.2656 1.07726 22.088 0.894359C21.7821 0.628287 21.4392 0.407952 21.0701 0.240226C20.8474 0.146335 20.605 0.108928 20.3644 0.131331C20.1237 0.153734 19.8924 0.235252 19.6908 0.368638C19.4893 0.502024 19.3239 0.683143 19.2092 0.89589C19.0946 1.10864 19.0343 1.34642 19.0337 1.58809C19.0337 3.41263 19.3945 6.66716 21.6788 8.85249C20.4783 9.58249 19.3571 10.4356 18.3333 11.3979V5.86636C18.3333 4.19436 15.9683 2.93303 12.8333 2.93303C9.69833 2.93303 7.33333 4.19436 7.33333 5.86636V13.2547C4.76153 13.5114 2.93333 14.6664 2.93333 16.133V34.7854C1.1616 35.2613 0 36.2264 0 37.3997V41.0664C0 42.7384 2.365 43.9997 5.5 43.9997C8.30353 43.9997 10.4867 42.9899 10.9171 41.5797C12.183 42.2499 13.6017 42.5785 15.0333 42.533C18.1683 42.533 20.5333 41.2717 20.5333 39.5997V30.0664C20.5333 28.3944 18.1683 27.133 15.0333 27.133C14.6667 27.133 14.2985 27.1514 13.9333 27.188V16.133C13.9333 14.527 11.7502 13.3038 8.8 13.2092V7.89696C10.0476 8.53106 11.4345 8.84148 12.8333 8.79969C14.2322 8.84148 15.6191 8.53106 16.8667 7.89696V12.8983C16.3556 13.4685 15.8725 14.0632 15.4191 14.6803C15.3135 14.8374 15.2729 15.0293 15.3056 15.2158C15.3382 15.4022 15.4418 15.5688 15.5945 15.6807C15.7472 15.7926 15.9372 15.8411 16.1249 15.816C16.3125 15.791 16.4832 15.6944 16.6012 15.5464C17.072 14.9084 17.5765 14.2968 18.1133 13.713L18.1302 13.694C19.5301 12.1382 21.174 10.8207 22.9973 9.79336C23.3567 9.96643 23.7373 10.0933 24.1289 10.1696L22.2383 11.934C22.0962 12.0668 22.0126 12.2507 22.006 12.4451C21.9994 12.6396 22.0703 12.8287 22.2031 12.9709C22.336 13.1131 22.5198 13.1966 22.7143 13.2032C22.9088 13.2099 23.0979 13.1389 23.2401 13.0061L26.1734 10.27H26.4073V12.47C26.4073 12.6645 26.4846 12.851 26.6221 12.9886C26.7596 13.1261 26.9462 13.2034 27.1407 13.2034C27.3352 13.2034 27.5217 13.1261 27.6592 12.9886C27.7967 12.851 27.874 12.6645 27.874 12.47V10.2664H28.1079L31.0413 13.0024C31.1117 13.0682 31.1943 13.1195 31.2845 13.1533C31.3747 13.1871 31.4707 13.2029 31.567 13.1996C31.6633 13.1963 31.758 13.1741 31.8457 13.1342C31.9334 13.0944 32.0124 13.0376 32.0782 12.9672C32.144 12.8968 32.1952 12.8142 32.2291 12.724C32.2629 12.6337 32.2786 12.5378 32.2754 12.4415C32.2721 12.3452 32.2499 12.2505 32.21 12.1628C32.1702 12.0751 32.1134 11.9961 32.043 11.9303L30.14 10.1586C30.5294 10.0815 30.9072 9.95456 31.2642 9.78089C33.2024 10.8296 39.5736 14.9729 41.9599 25.101C42.9975 29.5098 42.6235 32.8824 40.8489 35.1227C38.5785 37.9864 34.639 38.133 33.8727 38.133H23.4667C23.2722 38.133 23.0856 38.2103 22.9481 38.3478C22.8106 38.4853 22.7333 38.6719 22.7333 38.8664C22.7333 39.0609 22.8106 39.2474 22.9481 39.3849C23.0856 39.5224 23.2722 39.5997 23.4667 39.5997H33.8727C35.1193 39.5997 39.3763 39.3423 41.998 36.0335C44.0645 33.4236 44.5324 29.6322 43.3869 24.7651ZM5.5 35.933C7.92513 35.933 9.53333 36.813 9.53333 37.3997C9.53333 37.9864 7.92513 38.8664 5.5 38.8664C3.07487 38.8664 1.46667 37.9864 1.46667 37.3997C1.46667 36.813 3.07487 35.933 5.5 35.933ZM5.5 42.533C3.07487 42.533 1.46667 41.653 1.46667 41.0664V39.4303C2.71424 40.0644 4.10115 40.3748 5.5 40.333C6.89885 40.3748 8.28576 40.0644 9.53333 39.4303V41.0664C9.53333 41.653 7.92513 42.533 5.5 42.533ZM15.0333 41.0664C12.6082 41.0664 11 40.1864 11 39.5997V32.097C12.2476 32.7311 13.6345 33.0415 15.0333 32.9997C16.4322 33.0415 17.8191 32.7311 19.0667 32.097V39.5997C19.0667 40.1864 17.4585 41.0664 15.0333 41.0664ZM19.0667 30.0664C19.0667 30.653 17.4585 31.533 15.0333 31.533C12.6082 31.533 11 30.653 11 30.0664C11 29.4797 12.6082 28.5997 15.0333 28.5997C17.4585 28.5997 19.0667 29.4797 19.0667 30.0664ZM9.53333 30.0664V35.3691C8.28576 34.735 6.89885 34.4246 5.5 34.4664C5.13333 34.4664 4.7652 34.4847 4.4 34.5214V18.1636C5.64757 18.7977 7.03449 19.1082 8.43333 19.0664C9.83218 19.1082 11.2191 18.7977 12.4667 18.1636V27.452C10.6949 27.928 9.53333 28.893 9.53333 30.0664ZM12.4667 16.133C12.4667 16.7197 10.8585 17.5997 8.43333 17.5997C6.0082 17.5997 4.4 16.7197 4.4 16.133C4.4 15.5464 6.0082 14.6664 8.43333 14.6664C10.8585 14.6664 12.4667 15.5464 12.4667 16.133ZM12.8333 7.33303C10.4082 7.33303 8.8 6.45303 8.8 5.86636C8.8 5.27969 10.4082 4.39969 12.8333 4.39969C15.2585 4.39969 16.8667 5.27969 16.8667 5.86636C16.8667 6.45303 15.2585 7.33303 12.8333 7.33303ZM36.4467 6.59969C36.4467 7.80163 35.145 8.78796 33.5133 8.79969C33.2404 8.79797 32.9685 8.76674 32.7023 8.70656C33.7666 7.57103 34.5064 6.17046 34.8443 4.65123C35.2757 4.77834 35.6591 5.03199 35.9448 5.37937C36.2304 5.72674 36.4053 6.15185 36.4467 6.59969ZM21.1699 2.03836C21.7892 2.61867 22.6077 2.93895 23.4564 2.93303C24.3056 2.9394 25.1248 2.61909 25.7444 2.03836C25.9239 1.85717 26.1375 1.71334 26.3728 1.61518C26.6082 1.51702 26.8607 1.46648 27.1157 1.46648C27.3708 1.46648 27.6233 1.51702 27.8586 1.61518C28.094 1.71334 28.3076 1.85717 28.4871 2.03836C29.1067 2.61952 29.9263 2.93989 30.7758 2.93303C31.6253 2.93959 32.4447 2.61926 33.0645 2.03836C33.2677 1.85869 33.4935 1.70689 33.737 1.58663C33.737 2.94843 33.484 6.31516 31.1212 8.16096C30.5896 8.56018 29.9452 8.78071 29.2805 8.79089C29.9154 7.70051 30.4178 6.53827 30.7773 5.32883C30.8294 5.14134 30.8049 4.94082 30.7092 4.77139C30.6135 4.60195 30.4544 4.47748 30.2669 4.42536C30.0794 4.37324 29.8789 4.39773 29.7094 4.49345C29.54 4.58916 29.4155 4.74827 29.3634 4.93576C28.9572 6.31425 28.3328 7.61876 27.5139 8.79969H26.7601C25.9428 7.61772 25.3183 6.31352 24.9099 4.93576C24.8576 4.74837 24.7331 4.58939 24.5637 4.49381C24.3943 4.39823 24.1938 4.37387 24.0064 4.42609C23.819 4.47831 23.66 4.60284 23.5645 4.77227C23.4689 4.9417 23.4445 5.14217 23.4967 5.32956C23.8565 6.54005 24.3595 7.70327 24.9949 8.79456C24.3169 8.79108 23.6581 8.56915 23.1161 8.16169C20.7533 6.31663 20.5003 2.94989 20.5003 1.59249C20.7431 1.70909 20.9689 1.85869 21.1699 2.03836Z" fill="white"/>
<path d="M39.6993 34.2121C40.5685 33.017 41.0395 31.5787 41.0457 30.101C41.0504 30.0048 41.036 29.9086 41.0035 29.818C40.9709 29.7273 40.9208 29.644 40.8561 29.5727C40.7913 29.5014 40.7131 29.4435 40.626 29.4024C40.5389 29.3614 40.4445 29.3378 40.3483 29.3332C40.1547 29.3264 39.966 29.3955 39.8225 29.5257C39.6791 29.656 39.5923 29.8372 39.5805 30.0306C39.586 31.2018 39.2253 32.3453 38.5487 33.3013C37.118 35.1082 34.4032 35.1999 33.873 35.1999C33.6785 35.1999 33.492 35.2772 33.3544 35.4147C33.2169 35.5522 33.1396 35.7387 33.1396 35.9332C33.1396 36.1277 33.2169 36.3142 33.3544 36.4518C33.492 36.5893 33.6785 36.6666 33.873 36.6666C34.5212 36.6666 37.8484 36.5485 39.6993 34.2121Z" fill="white"/>
</g>
<defs>
<clipPath id="clip0_11_3650">
<rect width="44" height="44" fill="white"/>
</clipPath>
</defs>
</svg>
