<svg width="45" height="45" viewBox="0 0 45 45" fill="none" xmlns="http://www.w3.org/2000/svg">
<path fill-rule="evenodd" clip-rule="evenodd" d="M22.5013 13.832C26.8042 13.832 30.7003 15.5763 33.52 18.3969C36.3397 21.2166 38.0848 25.1126 38.0848 29.4165C38.0848 33.7202 36.3406 37.6155 33.52 40.4352C30.6994 43.2549 26.8042 44.9991 22.5013 44.9991C18.1984 44.9991 14.3023 43.2549 11.4817 40.4352C8.66202 37.6155 6.91782 33.7194 6.91782 29.4165C6.91782 25.1136 8.66202 21.2175 11.4817 18.3969C14.3023 15.5763 18.1984 13.832 22.5013 13.832ZM7.65672 5.30095C7.6267 5.20484 7.57398 5.11737 7.50301 5.04594C7.43205 4.9745 7.34493 4.92121 7.24902 4.89055C7.09041 4.8396 6.91805 4.85374 6.76987 4.92986C6.62168 5.00598 6.50979 5.13784 6.45882 5.29645L5.32752 8.80285L1.68792 8.79565C1.47822 8.78035 1.26492 8.87125 1.13262 9.05395C1.08406 9.12081 1.04917 9.19659 1.02994 9.27695C1.01071 9.35732 1.00753 9.44068 1.02057 9.52228C1.03361 9.60388 1.06262 9.6821 1.10594 9.75246C1.14926 9.82283 1.20604 9.88396 1.27302 9.93235L4.25832 12.0923L3.11262 15.5951L3.11442 15.596C3.08391 15.6903 3.07608 15.7905 3.09156 15.8884C3.10704 15.9863 3.1454 16.0792 3.20352 16.1595C3.40782 16.4394 3.79932 16.5014 4.07922 16.2971L7.05732 14.1245L9.99672 16.2683C10.1578 16.4051 10.3837 16.4573 10.5988 16.3871C10.9291 16.2801 11.11 15.9245 11.002 15.5951L9.85632 12.0923L12.8416 9.93235L12.8407 9.93145C12.9212 9.87333 12.9866 9.79691 13.0317 9.70849C13.0768 9.62007 13.1002 9.52219 13.0999 9.42295C13.0999 9.25658 13.0338 9.09702 12.9162 8.97938C12.7985 8.86174 12.639 8.79565 12.4726 8.79565L8.78712 8.80285L7.65672 5.30095ZM7.73142 9.62275L7.05642 7.53295L6.38142 9.62275C6.34082 9.74931 6.26106 9.8597 6.15365 9.93799C6.04624 10.0163 5.91674 10.0584 5.78382 10.0583L3.58602 10.0538L5.36622 11.3417C5.47384 11.4198 5.55393 11.53 5.59501 11.6565C5.63608 11.7829 5.63602 11.9191 5.59482 12.0455L4.91172 14.1353L6.67752 12.8474C6.89262 12.6845 7.19682 12.6728 7.42632 12.8402L9.20202 14.1353L8.52612 12.0689C8.47858 11.9402 8.47448 11.7994 8.51446 11.6681C8.55444 11.5368 8.63629 11.4222 8.74752 11.3417L10.5277 10.0538L8.35962 10.0583C8.2216 10.0649 8.08527 10.0257 7.97172 9.94699C7.85817 9.86825 7.77372 9.7543 7.73142 9.62275ZM38.5447 5.30095C38.5147 5.20484 38.462 5.11737 38.391 5.04594C38.32 4.9745 38.2329 4.92121 38.137 4.89055C37.9784 4.8396 37.8061 4.85374 37.6579 4.92986C37.5097 5.00598 37.3978 5.13784 37.3468 5.29645L36.2155 8.80285L32.5759 8.79565C32.3662 8.78035 32.1529 8.87125 32.0206 9.05395C31.9721 9.12081 31.9372 9.19659 31.9179 9.27695C31.8987 9.35732 31.8955 9.44068 31.9086 9.52228C31.9216 9.60388 31.9506 9.6821 31.9939 9.75246C32.0373 9.82283 32.094 9.88396 32.161 9.93235L35.1463 12.0923L34.0006 15.5951L34.0024 15.596C33.9719 15.6903 33.9641 15.7905 33.9796 15.8884C33.995 15.9863 34.0334 16.0792 34.0915 16.1595C34.2958 16.4394 34.6873 16.5014 34.9672 16.2971L37.9453 14.1245L40.8847 16.2683C41.0458 16.4051 41.2717 16.4573 41.4868 16.3871C41.8171 16.2801 41.998 15.9245 41.89 15.5951L40.7443 12.0923L43.7296 9.93235L43.7287 9.93145C43.8092 9.87333 43.8746 9.79691 43.9197 9.70849C43.9648 9.62007 43.9882 9.52219 43.9879 9.42295C43.9879 9.34057 43.9717 9.259 43.9402 9.18289C43.9086 9.10678 43.8624 9.03763 43.8042 8.97938C43.7459 8.92113 43.6768 8.87492 43.6007 8.8434C43.5246 8.81187 43.443 8.79565 43.3606 8.79565L39.6751 8.80285L38.5447 5.30095ZM38.6203 9.62275L37.9453 7.53295L37.2703 9.62275C37.2297 9.74931 37.15 9.8597 37.0425 9.93799C36.9351 10.0163 36.8056 10.0584 36.6727 10.0583L34.4749 10.0538L36.2551 11.3417C36.3627 11.4198 36.4428 11.53 36.4839 11.6565C36.525 11.7829 36.5249 11.9191 36.4837 12.0455L35.8006 14.1353L37.5664 12.8474C37.7815 12.6845 38.0857 12.6728 38.3152 12.8402L40.0909 14.1353L39.415 12.0689C39.3675 11.9402 39.3634 11.7994 39.4034 11.6681C39.4433 11.5368 39.5252 11.4222 39.6364 11.3417L41.4166 10.0538L39.2485 10.0583C38.9704 10.0718 38.7085 9.89905 38.6203 9.62275ZM23.1007 0.441847L24.2311 3.94375L27.9166 3.93655C28.083 3.93655 28.2425 4.00264 28.3602 4.12028C28.4778 4.23792 28.5439 4.39748 28.5439 4.56385C28.5439 4.77265 28.4413 4.95805 28.2847 5.07235L28.2856 5.07325L25.3003 7.23325L26.446 10.736C26.5531 11.0663 26.3731 11.4209 26.0428 11.528C25.8277 11.5982 25.6018 11.5451 25.4407 11.4092L22.5013 9.26545L19.5232 11.438C19.4567 11.4866 19.3813 11.5215 19.3012 11.5409C19.2212 11.5602 19.1382 11.5636 19.0568 11.5508C18.9755 11.538 18.8975 11.5093 18.8272 11.4663C18.757 11.4234 18.6959 11.367 18.6475 11.3003C18.589 11.2203 18.5504 11.1274 18.5349 11.0294C18.5194 10.9314 18.5275 10.8312 18.5584 10.7369L18.5566 10.736L19.7023 7.23325L16.717 5.07325C16.6062 4.993 16.5245 4.87878 16.4844 4.74792C16.4443 4.61706 16.448 4.47669 16.495 4.34813C16.5419 4.21956 16.6295 4.10982 16.7444 4.03554C16.8594 3.96126 16.9954 3.9265 17.1319 3.93655L20.7715 3.94375L21.9037 0.437347C21.9444 0.310319 22.0246 0.199564 22.1325 0.121146C22.2404 0.042728 22.3705 0.00072366 22.5039 0.00122514C22.6373 0.00172662 22.767 0.0447078 22.8743 0.123935C22.9817 0.203163 23.061 0.314517 23.1007 0.441847ZM23.1763 4.76365L22.5013 2.67385L21.8263 4.76365C21.7857 4.89021 21.706 5.0006 21.5985 5.07889C21.4911 5.15718 21.3616 5.19933 21.2287 5.19925L19.0318 5.19475L20.812 6.48265C20.9196 6.56073 20.9997 6.67091 21.0408 6.79736C21.0819 6.92382 21.0818 7.06003 21.0406 7.18645L20.3575 9.27625L22.1233 7.98835C22.3384 7.82545 22.6426 7.81375 22.8721 7.98115L24.6478 9.27625L23.9719 7.20985C23.9244 7.08109 23.9203 6.9403 23.9603 6.80899C24.0002 6.67769 24.0821 6.56307 24.1933 6.48265L25.9735 5.19475L23.8054 5.19925C23.5264 5.21185 23.2645 5.03995 23.1763 4.76365ZM19.0525 26.8451L19.0651 35.0037H27.2596C27.5332 35.0037 27.7834 34.9118 27.976 34.7544C28.1695 34.596 28.3099 34.371 28.3648 34.1045L29.5825 28.1744C29.6185 27.9998 29.6167 27.8324 29.578 27.6767C29.5393 27.521 29.4637 27.3716 29.3503 27.233C29.2387 27.0953 29.1082 26.9918 28.9642 26.9234C28.8211 26.855 28.6573 26.8209 28.4764 26.8209H24.1726C23.8243 26.8209 23.5426 26.5392 23.5426 26.1909C23.5426 26.1 23.5615 26.0144 23.5966 25.9361L23.7334 25.5473C24.4156 23.6051 24.7774 22.5746 23.8288 21.6936C23.7334 21.6045 23.629 21.545 23.521 21.5154C23.413 21.4857 23.2915 21.4839 23.1628 21.5118C23.0341 21.5396 22.9243 21.591 22.8388 21.6621C22.7524 21.7341 22.6822 21.8313 22.6327 21.9519L20.9416 26.0001C20.6014 26.8137 19.7833 26.8713 19.0525 26.8451ZM17.8105 35.5473L17.7961 26.2493C17.6728 25.587 16.5568 25.434 16.5568 26.6012V35.2854C16.5568 36.3392 17.5288 36.5075 17.8105 35.5473ZM27.2596 36.2636C27.8284 36.2636 28.354 36.0666 28.7689 35.729C29.182 35.3915 29.4808 34.9155 29.596 34.3565L30.8137 28.4265C30.8875 28.0665 30.8821 27.7136 30.7993 27.3771C30.7165 27.0413 30.5581 26.7264 30.3259 26.441C30.0928 26.1549 29.8156 25.9361 29.5015 25.7867C29.1874 25.6373 28.8427 25.5609 28.4773 25.5609H25.06C25.8241 23.3666 26.1499 22.1327 24.6856 20.7729C24.4417 20.546 24.1582 20.3885 23.8513 20.304C23.5444 20.2194 23.2213 20.2104 22.8973 20.2806C22.5724 20.3507 22.2826 20.493 22.0369 20.6973C21.7921 20.9007 21.5995 21.1616 21.4708 21.4694L19.7797 25.5176C19.7383 25.6175 19.2856 25.6005 18.8968 25.5807C18.1084 23.813 15.2959 24.1919 15.2959 26.6021V35.2863C15.2959 37.6164 17.9716 38.2257 18.8797 36.2636H27.2596ZM22.5013 16.4618C18.9247 16.4618 15.6856 17.9118 13.342 20.2563C10.9975 22.6008 9.54762 25.8389 9.54762 29.4156C9.54762 32.9921 10.9975 36.2313 13.342 38.5748C15.6865 40.9193 18.9247 42.3693 22.5013 42.3693C26.0779 42.3693 29.317 40.9193 31.6606 38.5748C34.0051 36.2304 35.455 32.9921 35.455 29.4156C35.455 25.8389 34.0051 22.5999 31.6606 20.2563C29.317 17.9118 26.0779 16.4618 22.5013 16.4618ZM30.7696 21.1473C28.6537 19.0313 25.7305 17.7218 22.5013 17.7218C19.2721 17.7218 16.3489 19.0305 14.2321 21.1473C12.1162 23.2632 10.8067 26.1863 10.8067 29.4156C10.8067 32.6447 12.1153 35.568 14.2321 37.6847C16.348 39.8007 19.2721 41.1101 22.5013 41.1101C25.7305 41.1101 28.6537 39.8016 30.7696 37.6847C32.8855 35.5689 34.195 32.6447 34.195 29.4156C34.195 26.1863 32.8864 23.2632 30.7696 21.1473ZM32.6299 19.287C30.0379 16.695 26.4568 15.092 22.5013 15.092C18.5458 15.092 14.9647 16.695 12.3727 19.287C9.78072 21.879 8.17782 25.46 8.17782 29.4156C8.17782 33.3711 9.78072 36.9522 12.3727 39.5442C14.9647 42.1362 18.5458 43.7391 22.5013 43.7391C26.4568 43.7391 30.0379 42.1362 32.6299 39.5442C35.2219 36.9522 36.8248 33.3711 36.8248 29.4156C36.8248 25.46 35.2219 21.879 32.6299 19.287Z" fill="white"/>
</svg>
