<svg width="52" height="52" viewBox="0 0 52 52" fill="none" xmlns="http://www.w3.org/2000/svg">
<path d="M37.375 37.379C37.1595 37.379 36.9528 37.2934 36.8005 37.1411C36.6481 36.9887 36.5625 36.782 36.5625 36.5665V30.0665C36.5625 29.851 36.6481 29.6444 36.8005 29.492C36.9528 29.3396 37.1595 29.254 37.375 29.254C37.5905 29.254 37.7972 29.3396 37.9495 29.492C38.1019 29.6444 38.1875 29.851 38.1875 30.0665V36.5665C38.1875 36.782 38.1019 36.9887 37.9495 37.1411C37.7972 37.2934 37.5905 37.379 37.375 37.379Z" fill="white"/>
<path d="M43.875 37.379H37.375C37.1595 37.379 36.9528 37.2934 36.8005 37.141C36.6481 36.9887 36.5625 36.782 36.5625 36.5665C36.5625 36.351 36.6481 36.1444 36.8005 35.992C36.9528 35.8396 37.1595 35.754 37.375 35.754H43.875C44.0905 35.754 44.2972 35.8396 44.4495 35.992C44.6019 36.1444 44.6875 36.351 44.6875 36.5665C44.6875 36.782 44.6019 36.9887 44.4495 37.141C44.2972 37.2934 44.0905 37.379 43.875 37.379ZM21.7628 45.504C21.6201 45.5043 21.48 45.4667 21.3566 45.3951L4.46875 35.6451C4.34524 35.5738 4.24267 35.4713 4.17136 35.3478C4.10005 35.2242 4.0625 35.0841 4.0625 34.9415V15.4415C4.0625 15.1515 4.21688 14.8825 4.46875 14.7379L21.3566 4.98789C21.48 4.91642 21.6202 4.87878 21.7628 4.87878C21.9055 4.87878 22.0456 4.91642 22.1691 4.98789L39.0569 14.7379C39.1804 14.8092 39.283 14.9118 39.3543 15.0353C39.4256 15.1588 39.4631 15.2989 39.4631 15.4415V23.6291C39.4631 23.8446 39.3775 24.0512 39.2252 24.2036C39.0728 24.356 38.8661 24.4416 38.6506 24.4416C38.4351 24.4416 38.2285 24.356 38.0761 24.2036C37.9237 24.0512 37.8381 23.8446 37.8381 23.6291V15.9103L21.7628 6.62995L5.6875 15.9103V34.4727L21.7628 43.7531L25.3459 41.6845C25.5325 41.5784 25.7533 41.5504 25.9604 41.6067C26.1675 41.6629 26.3439 41.7987 26.4512 41.9845C26.5584 42.1703 26.5879 42.391 26.533 42.5984C26.4782 42.8059 26.3435 42.9832 26.1584 43.0917L22.1691 45.3943C22.0457 45.4662 21.9055 45.504 21.7628 45.504Z" fill="white"/>
<path d="M37.2984 47.1217C36.2869 47.1217 35.2802 46.9714 34.3044 46.6756C30.5653 45.5414 27.6939 42.3288 26.987 38.4905C26.2671 34.5832 27.8515 30.515 31.026 28.1246C32.8313 26.7653 35.0933 26.0162 37.3951 26.0162C39.0608 26.0162 40.7101 26.4086 42.1669 27.1521C45.6729 28.9396 47.9373 32.6348 47.9373 36.5665C47.9373 39.4005 46.7949 42.0679 44.7198 44.0756C42.7211 46.011 40.0154 47.1217 37.2984 47.1217ZM37.3951 27.6412C35.4443 27.6412 33.5285 28.2741 32.0034 29.4222C29.3173 31.4453 27.9758 34.8895 28.5852 38.1956C29.1824 41.4431 31.6134 44.1609 34.7756 45.1197C37.8201 46.0435 41.261 45.1611 43.5896 42.9072C45.3463 41.2091 46.3123 38.9569 46.3123 36.5665C46.3123 33.2393 44.3956 30.112 41.4292 28.5991C40.1785 27.9673 38.7964 27.6391 37.3951 27.6412ZM11.6941 20.1906C11.5152 20.1907 11.3412 20.1318 11.1992 20.023C11.0572 19.9142 10.955 19.7615 10.9087 19.5887C10.8623 19.4159 10.8742 19.2327 10.9426 19.0673C11.011 18.902 11.1321 18.7639 11.2871 18.6744L28.1749 8.92444C28.2673 8.87024 28.3696 8.83487 28.4757 8.82036C28.5819 8.80584 28.6899 8.81247 28.7935 8.83986C28.8971 8.86724 28.9942 8.91485 29.0793 8.97994C29.1645 9.04503 29.2359 9.12631 29.2894 9.21911C29.343 9.3119 29.3777 9.41438 29.3915 9.52064C29.4053 9.6269 29.398 9.73484 29.3699 9.83825C29.3418 9.94166 29.2936 10.0385 29.2279 10.1232C29.1623 10.2079 29.0805 10.2787 28.9874 10.3317L12.0996 20.0817C11.9764 20.1532 11.8365 20.1907 11.6941 20.1906ZM14.9441 22.0674C14.7652 22.0676 14.5912 22.0087 14.4492 21.8999C14.3072 21.7911 14.205 21.6384 14.1587 21.4656C14.1123 21.2928 14.1242 21.1095 14.1926 20.9442C14.261 20.7789 14.3821 20.6408 14.5371 20.5513L31.4249 10.8013C31.5173 10.7471 31.6196 10.7117 31.7257 10.6972C31.8319 10.6827 31.9399 10.6893 32.0435 10.7167C32.1471 10.7441 32.2442 10.7917 32.3293 10.8568C32.4145 10.9219 32.4859 11.0032 32.5394 11.096C32.593 11.1888 32.6277 11.2913 32.6415 11.3975C32.6553 11.5038 32.648 11.6117 32.6199 11.7151C32.5918 11.8185 32.5436 11.9154 32.4779 12.0001C32.4123 12.0847 32.3305 12.1556 32.2374 12.2086L15.3496 21.9586C15.2264 22.03 15.0865 22.0676 14.9441 22.0674Z" fill="white"/>
<path d="M14.9434 27.6965C14.7279 27.6965 14.5212 27.6109 14.3688 27.4585C14.2165 27.3062 14.1309 27.0995 14.1309 26.884V21.255C14.1309 21.0395 14.2165 20.8329 14.3688 20.6805C14.5212 20.5281 14.7279 20.4425 14.9434 20.4425C15.1588 20.4425 15.3655 20.5281 15.5179 20.6805C15.6703 20.8329 15.7559 21.0395 15.7559 21.255V26.884C15.7559 27.0995 15.6703 27.3062 15.5179 27.4585C15.3655 27.6109 15.1588 27.6965 14.9434 27.6965Z" fill="white"/>
<path d="M14.9423 27.6965C14.8 27.6965 14.6601 27.6589 14.5369 27.5876L11.2869 25.7107C11.1937 25.6578 11.112 25.5869 11.0463 25.5022C10.9807 25.4175 10.9324 25.3207 10.9044 25.2173C10.8763 25.1139 10.8689 25.0059 10.8828 24.8997C10.8966 24.7934 10.9313 24.6909 10.9848 24.5981C11.0384 24.5053 11.1098 24.4241 11.1949 24.359C11.2801 24.2939 11.3772 24.2463 11.4808 24.2189C11.5844 24.1915 11.6924 24.1849 11.7985 24.1994C11.9047 24.2139 12.007 24.2493 12.0994 24.3035L15.3494 26.1803C15.5043 26.2698 15.6254 26.4079 15.6938 26.5732C15.7623 26.7386 15.7742 26.9218 15.7278 27.0947C15.6814 27.2675 15.5793 27.4201 15.4373 27.5289C15.2952 27.6377 15.1213 27.6966 14.9423 27.6965Z" fill="white"/>
<path d="M11.6934 25.8196C11.4779 25.8196 11.2712 25.7339 11.1188 25.5816C10.9665 25.4292 10.8809 25.2225 10.8809 25.0071V19.3781C10.8809 19.1626 10.9665 18.9559 11.1188 18.8035C11.2712 18.6512 11.4779 18.5656 11.6934 18.5656C11.9088 18.5656 12.1155 18.6512 12.2679 18.8035C12.4203 18.9559 12.5059 19.1626 12.5059 19.3781V25.0071C12.5059 25.2225 12.4203 25.4292 12.2679 25.5816C12.1155 25.7339 11.9088 25.8196 11.6934 25.8196ZM21.7627 45.504C21.5472 45.504 21.3405 45.4184 21.1881 45.266C21.0358 45.1136 20.9502 44.907 20.9502 44.6915V25.1915C20.9502 24.976 21.0358 24.7693 21.1881 24.617C21.3405 24.4646 21.5472 24.379 21.7627 24.379C21.9782 24.379 22.1848 24.4646 22.3372 24.617C22.4896 24.7693 22.5752 24.976 22.5752 25.1915V44.6915C22.5752 44.907 22.4896 45.1136 22.3372 45.266C22.1848 45.4184 21.9782 45.504 21.7627 45.504Z" fill="white"/>
<path d="M21.7618 26.004C21.6194 26.004 21.4796 25.9665 21.3563 25.8952L4.46853 16.1452C4.37539 16.0922 4.29363 16.0213 4.22798 15.9367C4.16233 15.852 4.11408 15.7551 4.086 15.6517C4.05793 15.5483 4.05058 15.4404 4.06439 15.3341C4.07821 15.2279 4.1129 15.1254 4.16648 15.0326C4.22005 14.9398 4.29146 14.8585 4.37658 14.7934C4.4617 14.7283 4.55885 14.6807 4.66244 14.6533C4.76603 14.6259 4.87402 14.6193 4.98019 14.6338C5.08635 14.6483 5.1886 14.6837 5.28103 14.7379L22.1688 24.4879C22.3238 24.5774 22.4449 24.7155 22.5133 24.8808C22.5817 25.0461 22.5937 25.2294 22.5473 25.4022C22.5009 25.575 22.3987 25.7277 22.2567 25.8365C22.1147 25.9453 21.9407 26.0042 21.7618 26.004Z" fill="white"/>
<path d="M21.7635 26.004C21.5846 26.0042 21.4106 25.9453 21.2685 25.8365C21.1265 25.7277 21.0244 25.575 20.978 25.4022C20.9316 25.2294 20.9435 25.0461 21.012 24.8808C21.0804 24.7155 21.2015 24.5774 21.3564 24.4879L38.2442 14.7379C38.3367 14.6837 38.4389 14.6483 38.5451 14.6338C38.6512 14.6193 38.7592 14.6259 38.8628 14.6533C38.9664 14.6807 39.0636 14.7283 39.1487 14.7934C39.2338 14.8585 39.3052 14.9398 39.3588 15.0326C39.4124 15.1254 39.4471 15.2279 39.4609 15.3341C39.4747 15.4404 39.4673 15.5483 39.4393 15.6517C39.4112 15.7551 39.3629 15.852 39.2973 15.9367C39.2316 16.0213 39.1499 16.0922 39.0567 16.1452L22.1689 25.8952C22.0457 25.9665 21.9058 26.004 21.7635 26.004Z" fill="white"/>
</svg>
