<svg width="54" height="54" viewBox="0 0 54 54" fill="none" xmlns="http://www.w3.org/2000/svg">
<g clip-path="url(#clip0_11_3669)">
<path d="M52.3125 35.0156C52.0887 35.0156 51.8741 34.9267 51.7159 34.7685C51.5576 34.6103 51.4688 34.3957 51.4688 34.1719V29.9531C51.4688 29.7293 51.5576 29.5147 51.7159 29.3565C51.8741 29.1983 52.0887 29.1094 52.3125 29.1094C52.5363 29.1094 52.7509 29.1983 52.9091 29.3565C53.0674 29.5147 53.1562 29.7293 53.1562 29.9531V34.1719C53.1562 34.3957 53.0674 34.6103 52.9091 34.7685C52.7509 34.9267 52.5363 35.0156 52.3125 35.0156Z" fill="white"/>
<path d="M52.3137 30.7969C52.1568 30.7971 52.0029 30.7535 51.8693 30.6711C51.7358 30.5887 51.6278 30.4707 51.5577 30.3303L50.7139 28.6428C50.6139 28.4425 50.5975 28.2107 50.6684 27.9983C50.7393 27.786 50.8917 27.6105 51.0919 27.5105C51.2922 27.4104 51.524 27.3941 51.7364 27.4649C51.9487 27.5358 52.1242 27.6882 52.2243 27.8885L53.068 29.576C53.1323 29.7046 53.1626 29.8476 53.1561 29.9913C53.1496 30.135 53.1065 30.2746 53.0308 30.397C52.9552 30.5193 52.8495 30.6202 52.7238 30.6902C52.5982 30.7602 52.4575 30.7969 52.3137 30.7969Z" fill="white"/>
<path d="M51.4683 29.1094C51.3245 29.1093 51.1832 29.0725 51.0576 29.0024C50.9321 28.9324 50.8265 28.8314 50.7509 28.7091C50.6754 28.5868 50.6323 28.4472 50.6259 28.3036C50.6194 28.16 50.6497 28.0171 50.714 27.8885L51.5577 26.201C51.6073 26.1018 51.6758 26.0133 51.7596 25.9407C51.8433 25.868 51.9405 25.8125 52.0456 25.7774C52.1508 25.7423 52.2618 25.7283 52.3724 25.7361C52.4829 25.7439 52.5909 25.7734 52.69 25.823C52.7892 25.8725 52.8777 25.9411 52.9503 26.0248C53.023 26.1085 53.0785 26.2057 53.1136 26.3108C53.1487 26.416 53.1627 26.527 53.1549 26.6376C53.1471 26.7481 53.1176 26.8561 53.0681 26.9553L52.2243 28.6428C52.1541 28.7832 52.0462 28.9012 51.9127 28.9836C51.7791 29.066 51.6252 29.1096 51.4683 29.1094Z" fill="white"/>
<path d="M52.314 27.4218C52.1859 27.4217 52.0595 27.3923 51.9444 27.3361C51.8293 27.2798 51.7285 27.1981 51.6497 27.0971C51.5708 26.9962 51.5159 26.8786 51.4893 26.7533C51.4626 26.628 51.4647 26.4983 51.4955 26.3739L52.3393 22.9989C52.4003 22.7895 52.54 22.6119 52.7291 22.5032C52.9183 22.3946 53.1421 22.3634 53.3537 22.4162C53.5653 22.4691 53.7483 22.6018 53.8642 22.7865C53.9801 22.9713 54.0199 23.1938 53.9753 23.4073L53.1316 26.7823C53.0862 26.965 52.9809 27.1272 52.8326 27.2431C52.6842 27.359 52.5022 27.4219 52.314 27.4218Z" fill="white"/>
<path d="M53.1574 24.0469C53.0005 24.0471 52.8466 24.0035 52.7131 23.9211C52.5795 23.8387 52.4716 23.7207 52.4014 23.5803L51.5577 21.8928C51.5082 21.7936 51.4787 21.6856 51.4708 21.5751C51.463 21.4645 51.4771 21.3535 51.5122 21.2483C51.5473 21.1432 51.6028 21.046 51.6754 20.9623C51.7481 20.8786 51.8365 20.81 51.9357 20.7605C52.0349 20.7109 52.1428 20.6814 52.2534 20.6736C52.364 20.6658 52.475 20.6798 52.5801 20.7149C52.6853 20.75 52.7825 20.8055 52.8662 20.8782C52.9499 20.9508 53.0185 21.0393 53.068 21.1385L53.9118 22.826C53.9761 22.9546 54.0064 23.0976 53.9999 23.2413C53.9934 23.385 53.9502 23.5246 53.8746 23.647C53.7989 23.7693 53.6932 23.8702 53.5676 23.9402C53.4419 24.0102 53.3013 24.0469 53.1574 24.0469Z" fill="white"/>
<path d="M52.3133 22.3594C52.1464 22.3593 51.9834 22.3098 51.8446 22.2171C51.7059 22.1244 51.5978 21.9926 51.5339 21.8385C51.4701 21.6843 51.4534 21.5147 51.4859 21.3511C51.5185 21.1874 51.5988 21.0371 51.7168 20.9191L52.5605 20.0753C52.6383 19.9947 52.7315 19.9305 52.8344 19.8863C52.9373 19.842 53.048 19.8188 53.1601 19.8178C53.2721 19.8168 53.3832 19.8382 53.4869 19.8806C53.5906 19.923 53.6848 19.9857 53.764 20.0649C53.8433 20.1441 53.9059 20.2383 53.9483 20.342C53.9908 20.4457 54.0121 20.5568 54.0111 20.6688C54.0102 20.7809 53.9869 20.8916 53.9427 20.9945C53.8984 21.0975 53.8342 21.1906 53.7536 21.2684L52.9098 22.1121C52.8316 22.1906 52.7386 22.2528 52.6362 22.2953C52.5339 22.3377 52.4241 22.3595 52.3133 22.3594Z" fill="white"/>
<path d="M53.1574 21.5156C53.0005 21.5158 52.8466 21.4723 52.7131 21.3899C52.5795 21.3074 52.4716 21.1894 52.4014 21.049L51.5577 19.3615C51.4577 19.1612 51.4413 18.9294 51.5122 18.7171C51.5831 18.5047 51.7354 18.3292 51.9357 18.2292C52.136 18.1292 52.3678 18.1128 52.5801 18.1837C52.7925 18.2546 52.968 18.4069 53.068 18.6072L53.9118 20.2947C53.9761 20.4234 54.0064 20.5663 53.9999 20.71C53.9934 20.8537 53.9502 20.9934 53.8746 21.1157C53.7989 21.238 53.6932 21.339 53.5676 21.409C53.4419 21.479 53.3013 21.5157 53.1574 21.5156Z" fill="white"/>
<path d="M48.9367 20.6718C48.731 20.6714 48.5325 20.5958 48.3786 20.4593C48.2247 20.3228 48.126 20.1348 48.101 19.9306C48.076 19.7263 48.1265 19.52 48.2429 19.3505C48.3594 19.1809 48.5338 19.0597 48.7334 19.0097L52.1084 18.1659C52.2168 18.1362 52.3301 18.1284 52.4416 18.1431C52.5531 18.1577 52.6605 18.1946 52.7576 18.2513C52.8546 18.3081 52.9394 18.3837 53.0068 18.4737C53.0742 18.5637 53.1229 18.6663 53.1502 18.7754C53.1774 18.8845 53.1825 18.9979 53.1653 19.109C53.148 19.2201 53.1087 19.3267 53.0497 19.4224C52.9907 19.5181 52.9132 19.6011 52.8216 19.6664C52.7301 19.7317 52.6264 19.7781 52.5167 19.8028L49.1417 20.6465C49.0747 20.6634 49.0058 20.6719 48.9367 20.6718Z" fill="white"/>
<path d="M46.407 23.2031C46.2402 23.2031 46.0771 23.1536 45.9384 23.0609C45.7997 22.9681 45.6915 22.8364 45.6277 22.6822C45.5638 22.5281 45.5471 22.3585 45.5797 22.1948C45.6122 22.0312 45.6926 21.8808 45.8105 21.7628L48.3418 19.2316C48.4196 19.151 48.5127 19.0867 48.6156 19.0425C48.7186 18.9983 48.8293 18.975 48.9413 18.974C49.0534 18.9731 49.1645 18.9944 49.2682 19.0368C49.3719 19.0793 49.4661 19.1419 49.5453 19.2211C49.6245 19.3004 49.6872 19.3946 49.7296 19.4983C49.772 19.6019 49.7934 19.713 49.7924 19.8251C49.7914 19.9371 49.7681 20.0478 49.7239 20.1508C49.6797 20.2537 49.6154 20.3468 49.5348 20.4246L47.0036 22.9559C46.9253 23.0344 46.8323 23.0966 46.73 23.139C46.6276 23.1814 46.5179 23.2032 46.407 23.2031Z" fill="white"/>
<path d="M46.4069 23.2031C46.3148 23.2031 46.2233 23.188 46.136 23.1584L43.6461 22.3146C43.4368 22.2408 43.265 22.0874 43.1679 21.8878C43.0709 21.6881 43.0564 21.4583 43.1277 21.2481C43.1989 21.0378 43.3502 20.8641 43.5486 20.7647C43.7471 20.6652 43.9767 20.6479 44.1878 20.7166L46.6777 21.5603C46.8671 21.6246 47.0275 21.7539 47.1303 21.9254C47.2331 22.0969 47.2717 22.2993 47.2392 22.4966C47.2067 22.6939 47.1051 22.8732 46.9527 23.0026C46.8003 23.132 46.6068 23.2031 46.4069 23.2031Z" fill="white"/>
<path d="M37.1265 25.7343C36.936 25.7347 36.7511 25.6706 36.6016 25.5525C36.4522 25.4344 36.3471 25.2692 36.3035 25.0838C36.2599 24.8984 36.2803 24.7037 36.3614 24.5313C36.4425 24.359 36.5795 24.2192 36.7502 24.1346L43.5415 20.7596C43.7417 20.662 43.9723 20.6474 44.1832 20.7192C44.394 20.7909 44.5679 20.943 44.667 21.1425C44.7661 21.3419 44.7824 21.5724 44.7122 21.7838C44.642 21.9951 44.4912 22.1702 44.2925 22.2707L37.5011 25.6457C37.3848 25.7039 37.2566 25.7342 37.1265 25.7343ZM20.2515 25.7343C20.2048 25.7345 20.1583 25.7305 20.1123 25.7225L15.0498 24.8788C14.9379 24.8636 14.8301 24.8261 14.733 24.7686C14.6358 24.711 14.5512 24.6345 14.4841 24.5436C14.4171 24.4527 14.369 24.3493 14.3426 24.2395C14.3163 24.1296 14.3122 24.0156 14.3308 23.9042C14.3493 23.7928 14.39 23.6863 14.4505 23.5909C14.511 23.4955 14.59 23.4132 14.6828 23.3489C14.7757 23.2846 14.8805 23.2397 14.9911 23.2166C15.1017 23.1936 15.2157 23.193 15.3265 23.2149L20.389 24.0587C20.5974 24.0939 20.7849 24.206 20.9146 24.3728C21.0442 24.5396 21.1066 24.749 21.0893 24.9596C21.072 25.1702 20.9764 25.3666 20.8212 25.5101C20.6661 25.6535 20.4628 25.7336 20.2515 25.7343Z" fill="white"/>
<path d="M15.187 24.8906C15.0564 24.8906 14.9276 24.8602 14.8107 24.802L13.1232 23.9583C13.024 23.9087 12.9356 23.8402 12.8629 23.7565C12.7903 23.6727 12.7348 23.5755 12.6997 23.4704C12.6646 23.3653 12.6505 23.2542 12.6583 23.1436C12.6662 23.0331 12.6957 22.9251 12.7452 22.826C12.7947 22.7268 12.8633 22.6383 12.947 22.5657C13.0307 22.493 13.1279 22.4375 13.2331 22.4024C13.3382 22.3673 13.4492 22.3533 13.5598 22.3611C13.6704 22.3689 13.7783 22.3984 13.8775 22.448L15.565 23.2917C15.7353 23.3766 15.8719 23.5165 15.9526 23.6887C16.0334 23.8609 16.0535 24.0554 16.0099 24.2406C15.9662 24.4257 15.8612 24.5907 15.712 24.7087C15.5628 24.8267 15.3772 24.8908 15.187 24.8906Z" fill="white"/>
<path d="M13.5003 24.0469C13.3667 24.0468 13.235 24.0149 13.1161 23.954C12.9972 23.893 12.8945 23.8047 12.8164 23.6963C12.7383 23.5879 12.687 23.4624 12.6669 23.3303C12.6467 23.1982 12.6582 23.0633 12.7005 22.9365L13.5442 20.4052C13.576 20.2963 13.6294 20.1948 13.7013 20.107C13.7732 20.0192 13.8621 19.9468 13.9626 19.8941C14.0632 19.8414 14.1733 19.8096 14.2864 19.8005C14.3995 19.7913 14.5134 19.8051 14.621 19.841C14.7287 19.8769 14.828 19.9342 14.9131 20.0093C14.9981 20.0845 15.0671 20.1761 15.1159 20.2785C15.1647 20.381 15.1924 20.4923 15.1972 20.6056C15.202 20.719 15.1839 20.8322 15.144 20.9385L14.3002 23.4697C14.2443 23.6377 14.1369 23.7838 13.9934 23.8873C13.8498 23.9909 13.6773 24.0467 13.5003 24.0469Z" fill="white"/>
<path d="M14.3444 21.5157C14.1289 21.5163 13.9214 21.4342 13.7647 21.2862L12.0772 19.694C11.9966 19.6179 11.9318 19.5267 11.8864 19.4256C11.8411 19.3245 11.8161 19.2154 11.8129 19.1046C11.8096 18.9939 11.8283 18.8835 11.8677 18.7799C11.9071 18.6764 11.9666 18.5816 12.0426 18.5009C12.1187 18.4203 12.2099 18.3555 12.311 18.3101C12.4122 18.2648 12.5212 18.2398 12.632 18.2366C12.7428 18.2333 12.8531 18.252 12.9567 18.2914C13.0603 18.3308 13.1551 18.3903 13.2357 18.4664L14.9232 20.0577C15.0463 20.1736 15.1317 20.3238 15.1684 20.4888C15.2051 20.6539 15.1914 20.8261 15.129 20.9832C15.0666 21.1404 14.9584 21.2752 14.8185 21.3701C14.6787 21.465 14.5135 21.5157 14.3444 21.5157Z" fill="white"/>
<path d="M8.43824 24.0469C8.27049 24.047 8.10651 23.9972 7.96723 23.9037C7.82795 23.8102 7.71971 23.6773 7.65632 23.522C7.59292 23.3667 7.57727 23.196 7.61134 23.0318C7.64541 22.8675 7.72767 22.7171 7.84761 22.5999L12.0664 18.4765C12.1456 18.3989 12.2393 18.3377 12.3422 18.2964C12.4451 18.255 12.5551 18.2343 12.6659 18.2355C12.7768 18.2367 12.8864 18.2597 12.9883 18.3032C13.0903 18.3467 13.1827 18.4099 13.2603 18.4891C13.3378 18.5683 13.399 18.6621 13.4404 18.7649C13.4817 18.8678 13.5024 18.9778 13.5012 19.0887C13.5 19.1996 13.477 19.3091 13.4335 19.4111C13.39 19.5131 13.3268 19.6055 13.2476 19.683L9.02886 23.8064C8.87123 23.9611 8.65906 24.0475 8.43824 24.0469Z" fill="white"/>
<path d="M5.06414 25.7344C4.87383 25.7347 4.68899 25.6708 4.53963 25.5528C4.39027 25.4349 4.28517 25.2699 4.24139 25.0847C4.1976 24.8995 4.21771 24.705 4.29845 24.5326C4.37919 24.3603 4.51581 24.2203 4.68614 24.1355L8.06114 22.448C8.26142 22.3479 8.49323 22.3316 8.70558 22.4024C8.91793 22.4733 9.09342 22.6257 9.19345 22.826C9.29348 23.0262 9.30985 23.258 9.23896 23.4704C9.16807 23.6827 9.01573 23.8582 8.81545 23.9583L5.44045 25.6458C5.32355 25.704 5.19474 25.7343 5.06414 25.7344Z" fill="white"/>
<path d="M4.22023 29.1094C4.09212 29.1092 3.96574 29.0799 3.85064 29.0236C3.73555 28.9673 3.63476 28.8856 3.5559 28.7847C3.47705 28.6837 3.4222 28.5661 3.3955 28.4408C3.3688 28.3155 3.37095 28.1858 3.4018 28.0615L4.24555 24.6865C4.26875 24.5753 4.31416 24.47 4.37905 24.3768C4.44393 24.2836 4.52697 24.2044 4.62317 24.1441C4.71937 24.0838 4.82676 24.0435 4.93891 24.0256C5.05106 24.0078 5.16565 24.0128 5.27583 24.0403C5.38601 24.0678 5.4895 24.1172 5.58011 24.1857C5.67072 24.2541 5.74658 24.3402 5.80314 24.4386C5.8597 24.5371 5.8958 24.646 5.90928 24.7587C5.92276 24.8715 5.91333 24.9858 5.88158 25.0948L5.03783 28.4698C4.99242 28.6525 4.88716 28.8148 4.73883 28.9307C4.5905 29.0466 4.40848 29.1095 4.22023 29.1094Z" fill="white"/>
<path d="M5.06248 32.4844C4.87438 32.4843 4.69171 32.4213 4.54355 32.3054C4.3954 32.1895 4.29026 32.0274 4.24489 31.8448L3.40114 28.4698C3.3714 28.3614 3.36363 28.2481 3.37831 28.1366C3.39298 28.0251 3.42978 27.9177 3.48656 27.8206C3.54334 27.7236 3.61895 27.6389 3.70895 27.5714C3.79894 27.504 3.9015 27.4553 4.0106 27.428C4.1197 27.4008 4.23315 27.3957 4.34426 27.4129C4.45538 27.4302 4.56193 27.4695 4.65764 27.5285C4.75336 27.5875 4.83632 27.665 4.90164 27.7566C4.96696 27.8481 5.01332 27.9518 5.03801 28.0615L5.88176 31.4365C5.91262 31.5609 5.91476 31.6907 5.88801 31.816C5.86127 31.9414 5.80634 32.059 5.72739 32.16C5.64844 32.261 5.54755 32.3427 5.43234 32.3989C5.31714 32.4551 5.19066 32.4843 5.06248 32.4844Z" fill="white"/>
<path d="M2.5313 33.3281C2.33127 33.3277 2.13791 33.2562 1.98571 33.1264C1.83351 32.9966 1.73237 32.8169 1.70034 32.6195C1.66831 32.422 1.70747 32.2196 1.81084 32.0484C1.9142 31.8771 2.07504 31.7482 2.26467 31.6845L4.79592 30.8407C4.90216 30.8008 5.01536 30.7827 5.12875 30.7875C5.24215 30.7923 5.35341 30.82 5.45587 30.8688C5.55833 30.9176 5.64989 30.9866 5.72506 31.0716C5.80024 31.1567 5.85748 31.256 5.89337 31.3637C5.92926 31.4713 5.94306 31.5852 5.93394 31.6983C5.92482 31.8114 5.89297 31.9215 5.8403 32.0221C5.78762 32.1226 5.7152 32.2115 5.62738 32.2834C5.53956 32.3553 5.43813 32.4087 5.32917 32.4405L2.79792 33.2842C2.71199 33.3131 2.62195 33.3279 2.5313 33.3281Z" fill="white"/>
<path d="M2.53076 33.3281C2.40016 33.3281 2.27135 33.2977 2.15445 33.2395L0.466946 32.3958C0.266666 32.2957 0.114325 32.1202 0.0434367 31.9079C-0.0274521 31.6955 -0.0110818 31.4637 0.0889463 31.2635C0.188974 31.0632 0.364466 30.9108 0.576816 30.8399C0.789166 30.7691 1.02098 30.7854 1.22126 30.8855L2.90876 31.7292C3.07902 31.8141 3.2156 31.954 3.29635 32.1262C3.3771 32.2984 3.39728 32.4929 3.3536 32.6781C3.30993 32.8632 3.20497 33.0282 3.05576 33.1462C2.90654 33.2642 2.72099 33.3283 2.53076 33.3281Z" fill="white"/>
<path d="M4.21972 39.3162C4.07966 39.3165 3.94174 39.2818 3.81844 39.2154C3.69513 39.1489 3.59033 39.0528 3.5135 38.9357L0.1385 33.7913C0.0776696 33.6987 0.0356795 33.595 0.0149276 33.4862C-0.00582425 33.3773 -0.00493157 33.2654 0.0175547 33.1569C0.040041 33.0484 0.0836805 32.9454 0.145982 32.8537C0.208283 32.7621 0.288025 32.6836 0.380657 32.6228C0.473288 32.5619 0.576993 32.5199 0.685852 32.4992C0.794711 32.4784 0.906592 32.4793 1.01511 32.5018C1.12362 32.5243 1.22664 32.5679 1.31829 32.6302C1.40994 32.6925 1.48842 32.7723 1.54925 32.8649L4.92425 38.0093C5.00779 38.1364 5.05538 38.2839 5.06198 38.4359C5.06858 38.5879 5.03394 38.7389 4.96174 38.8728C4.88953 39.0068 4.78245 39.1187 4.65182 39.1968C4.52119 39.2748 4.37189 39.3161 4.21972 39.3162Z" fill="white"/>
<path d="M0.84375 34.1719C0.619974 34.1719 0.405363 34.083 0.247129 33.9247C0.0888949 33.7665 0 33.5519 0 33.3281V31.6406C0 31.4168 0.0888949 31.2022 0.247129 31.044C0.405363 30.8858 0.619974 30.7969 0.84375 30.7969C1.06753 30.7969 1.28214 30.8858 1.44037 31.044C1.59861 31.2022 1.6875 31.4168 1.6875 31.6406V33.3281C1.6875 33.5519 1.59861 33.7665 1.44037 33.9247C1.28214 34.083 1.06753 34.1719 0.84375 34.1719ZM4.35459 39.2344C4.19071 39.2344 4.03038 39.1867 3.89317 39.097C3.75596 39.0074 3.64782 38.8798 3.58196 38.7297C3.5161 38.5796 3.49537 38.4136 3.5223 38.252C3.54922 38.0903 3.62265 37.94 3.73359 37.8194L5.28525 36.1319C5.36026 36.0504 5.45061 35.9844 5.55112 35.9377C5.65163 35.8911 5.76034 35.8647 5.87105 35.8601C5.98176 35.8555 6.09229 35.8727 6.19634 35.9108C6.30039 35.9489 6.39592 36.0071 6.47747 36.0821C6.55902 36.1571 6.625 36.2475 6.67163 36.348C6.71827 36.4485 6.74465 36.5572 6.74928 36.6679C6.7539 36.7786 6.73667 36.8892 6.69858 36.9932C6.66048 37.0973 6.60226 37.1928 6.52725 37.2743L4.97559 38.9618C4.89666 39.0479 4.80069 39.1165 4.69377 39.1635C4.58686 39.2104 4.47135 39.2345 4.35459 39.2344Z" fill="white"/>
<path d="M5.90789 37.5469C5.71758 37.5472 5.53274 37.4833 5.38338 37.3653C5.23402 37.2474 5.12892 37.0824 5.08514 36.8972C5.04135 36.712 5.06146 36.5175 5.1422 36.3451C5.22294 36.1728 5.35956 36.0328 5.52989 35.948L7.21739 35.1042C7.31655 35.0547 7.42451 35.0252 7.53508 35.0174C7.64565 35.0095 7.75668 35.0236 7.86183 35.0587C7.96697 35.0938 8.06417 35.1493 8.14788 35.2219C8.23159 35.2946 8.30017 35.383 8.3497 35.4822C8.39923 35.5814 8.42874 35.6893 8.43655 35.7999C8.44436 35.9105 8.43031 36.0215 8.39521 36.1266C8.36011 36.2318 8.30464 36.329 8.23197 36.4127C8.15931 36.4964 8.07087 36.565 7.9717 36.6145L6.2842 37.4583C6.1673 37.5165 6.03849 37.5468 5.90789 37.5469Z" fill="white"/>
<path d="M7.59495 36.7031C7.43801 36.7033 7.28412 36.6598 7.15056 36.5774C7.01701 36.4949 6.9091 36.3769 6.83895 36.2365L5.9952 34.549C5.89517 34.3487 5.8788 34.1169 5.94969 33.9046C6.02058 33.6922 6.17292 33.5167 6.3732 33.4167C6.57348 33.3167 6.80529 33.3003 7.01764 33.3712C7.22999 33.4421 7.40548 33.5944 7.50551 33.7947L8.34926 35.4822C8.41356 35.6109 8.44389 35.7538 8.43738 35.8975C8.43087 36.0412 8.38774 36.1809 8.31208 36.3032C8.23641 36.4255 8.13073 36.5265 8.00507 36.5965C7.87941 36.6665 7.73794 36.7032 7.5941 36.7031H7.59495Z" fill="white"/>
<path d="M10.125 35.0156H6.75C6.52622 35.0156 6.31161 34.9267 6.15338 34.7685C5.99515 34.6103 5.90625 34.3957 5.90625 34.1719C5.90625 33.9481 5.99515 33.7335 6.15338 33.5753C6.31161 33.417 6.52622 33.3281 6.75 33.3281H10.125C10.3488 33.3281 10.5634 33.417 10.7216 33.5753C10.8799 33.7335 10.9688 33.9481 10.9688 34.1719C10.9688 34.3957 10.8799 34.6103 10.7216 34.7685C10.5634 34.9267 10.3488 35.0156 10.125 35.0156Z" fill="white"/>
<path d="M12.6566 37.5469C12.5458 37.547 12.4361 37.5252 12.3337 37.4828C12.2313 37.4404 12.1383 37.3781 12.0601 37.2997L9.52884 34.7684C9.37515 34.6093 9.2901 34.3961 9.29202 34.1749C9.29395 33.9537 9.38268 33.7421 9.53912 33.5856C9.69556 33.4292 9.90718 33.3405 10.1284 33.3385C10.3496 33.3366 10.5628 33.4217 10.7219 33.5754L13.2532 36.1066C13.3711 36.2246 13.4514 36.3749 13.484 36.5386C13.5165 36.7022 13.4998 36.8718 13.436 37.026C13.3721 37.1802 13.264 37.3119 13.1253 37.4046C12.9866 37.4973 12.8235 37.5468 12.6566 37.5469Z" fill="white"/>
<path d="M12.657 37.5469C12.4902 37.5468 12.3271 37.4973 12.1884 37.4046C12.0497 37.3119 11.9415 37.1802 11.8777 37.026C11.8138 36.8718 11.7971 36.7022 11.8297 36.5386C11.8622 36.3749 11.9426 36.2246 12.0605 36.1066L13.748 34.4191C13.9071 34.2654 14.1203 34.1804 14.3415 34.1823C14.5627 34.1842 14.7744 34.2729 14.9308 34.4294C15.0872 34.5858 15.176 34.7974 15.1779 35.0187C15.1798 35.2399 15.0948 35.453 14.9411 35.6122L13.2536 37.2997C13.1753 37.3781 13.0823 37.4404 12.98 37.4828C12.8776 37.5252 12.7679 37.547 12.657 37.5469Z" fill="white"/>
<path d="M17.7202 36.7032C17.651 36.7032 17.5822 36.6947 17.5151 36.6778L14.1401 35.8341C13.9276 35.7758 13.7463 35.6367 13.635 35.4464C13.5237 35.2562 13.4913 35.03 13.5446 34.8161C13.598 34.6023 13.7329 34.4178 13.9205 34.3022C14.1081 34.1865 14.3335 34.1488 14.5485 34.1972L17.9235 35.041C18.1231 35.091 18.2975 35.2122 18.4139 35.3818C18.5304 35.5514 18.5809 35.7577 18.5559 35.9619C18.5309 36.1661 18.4322 36.3541 18.2783 36.4906C18.1244 36.6271 17.9259 36.7027 17.7202 36.7032Z" fill="white"/>
<path d="M18.5637 38.3906C18.4068 38.3908 18.2529 38.3473 18.1193 38.2649C17.9858 38.1824 17.8778 38.0644 17.8077 37.924L16.9639 36.2365C16.8639 36.0362 16.8475 35.8044 16.9184 35.5921C16.9893 35.3797 17.1417 35.2042 17.3419 35.1042C17.5422 35.0042 17.774 34.9878 17.9864 35.0587C18.1987 35.1296 18.3742 35.2819 18.4743 35.4822L19.318 37.1697C19.3823 37.2984 19.4126 37.4413 19.4061 37.585C19.3996 37.7287 19.3565 37.8684 19.2808 37.9907C19.2052 38.113 19.0995 38.214 18.9738 38.284C18.8482 38.354 18.7075 38.3907 18.5637 38.3906Z" fill="white"/>
<path d="M20.25 38.3906H18.5625C18.3387 38.3906 18.1241 38.3017 17.9659 38.1435C17.8076 37.9853 17.7188 37.7707 17.7188 37.5469C17.7188 37.3231 17.8076 37.1085 17.9659 36.9503C18.1241 36.792 18.3387 36.7031 18.5625 36.7031H20.25C20.4738 36.7031 20.6884 36.792 20.8466 36.9503C21.0049 37.1085 21.0938 37.3231 21.0938 37.5469C21.0938 37.7707 21.0049 37.9853 20.8466 38.1435C20.6884 38.3017 20.4738 38.3906 20.25 38.3906Z" fill="white"/>
<path d="M21.0941 40.9219C20.9171 40.9217 20.7446 40.8659 20.6011 40.7623C20.4575 40.6588 20.3502 40.5127 20.2942 40.3447L19.4505 37.8135C19.4105 37.7072 19.3924 37.594 19.3972 37.4806C19.4021 37.3673 19.4297 37.256 19.4785 37.1535C19.5274 37.0511 19.5964 36.9595 19.6814 36.8843C19.7664 36.8092 19.8657 36.7519 19.9734 36.716C20.0811 36.6801 20.1949 36.6663 20.308 36.6755C20.4212 36.6846 20.5313 36.7164 20.6318 36.7691C20.7324 36.8218 20.8212 36.8942 20.8931 36.982C20.965 37.0698 21.0185 37.1713 21.0502 37.2802L21.894 39.8115C21.9362 39.9383 21.9477 40.0732 21.9276 40.2053C21.9074 40.3374 21.8562 40.4629 21.7781 40.5713C21.7 40.6797 21.5972 40.768 21.4783 40.829C21.3594 40.8899 21.2277 40.9218 21.0941 40.9219Z" fill="white"/>
<path d="M23.6243 42.6094C23.4579 42.6092 23.2953 42.5599 23.1568 42.4676L20.6256 40.7801C20.4394 40.6559 20.3102 40.4628 20.2663 40.2434C20.2225 40.0239 20.2677 39.796 20.3919 39.6098C20.5161 39.4236 20.7091 39.2944 20.9286 39.2506C21.1481 39.2068 21.376 39.2519 21.5621 39.3761L24.0934 41.0636C24.2441 41.1641 24.3585 41.3105 24.4196 41.481C24.4807 41.6516 24.4853 41.8373 24.4327 42.0106C24.3801 42.184 24.2731 42.3358 24.1275 42.4437C23.9819 42.5515 23.8054 42.6096 23.6243 42.6094Z" fill="white"/>
<path d="M23.625 42.6094C23.425 42.6089 23.2317 42.5374 23.0795 42.4076C22.9273 42.2778 22.8261 42.0982 22.7941 41.9007C22.7621 41.7033 22.8012 41.5009 22.9046 41.3296C23.008 41.1584 23.1688 41.0294 23.3584 40.9658L25.8897 40.122C26.0992 40.0609 26.3242 40.0833 26.5175 40.1846C26.7108 40.2859 26.8574 40.4582 26.9264 40.6652C26.9954 40.8722 26.9815 41.0979 26.8876 41.295C26.7937 41.492 26.6272 41.6449 26.4229 41.7218L23.8917 42.5655C23.8057 42.5944 23.7157 42.6092 23.625 42.6094Z" fill="white"/>
<path d="M27.8433 42.6094C27.7127 42.6093 27.5838 42.579 27.4669 42.5208L25.7794 41.677C25.6803 41.6275 25.5918 41.5589 25.5192 41.4752C25.4465 41.3915 25.391 41.2943 25.3559 41.1891C25.3208 41.084 25.3068 40.973 25.3146 40.8624C25.3224 40.7518 25.3519 40.6439 25.4014 40.5447C25.451 40.4455 25.5196 40.3571 25.6033 40.2844C25.687 40.2118 25.7842 40.1563 25.8893 40.1212C25.9945 40.0861 26.1055 40.072 26.2161 40.0799C26.3266 40.0877 26.4346 40.1172 26.5338 40.1667L28.2213 41.0105C28.3915 41.0953 28.5281 41.2352 28.6089 41.4075C28.6896 41.5797 28.7098 41.7742 28.6661 41.9593C28.6224 42.1445 28.5175 42.3094 28.3683 42.4274C28.219 42.5454 28.0335 42.6095 27.8433 42.6094Z" fill="white"/>
<path d="M27.8445 42.6094C27.6777 42.6093 27.5146 42.5598 27.3759 42.4671C27.2372 42.3744 27.129 42.2427 27.0652 42.0885C27.0013 41.9343 26.9846 41.7647 27.0172 41.6011C27.0497 41.4374 27.1301 41.2871 27.248 41.1691L28.0918 40.3254C28.2509 40.1717 28.464 40.0866 28.6853 40.0885C28.9065 40.0905 29.1181 40.1792 29.2746 40.3356C29.431 40.4921 29.5197 40.7037 29.5216 40.9249C29.5236 41.1461 29.4385 41.3593 29.2848 41.5184L28.4411 42.3622C28.3628 42.4406 28.2698 42.5029 28.1675 42.5453C28.0651 42.5877 27.9554 42.6095 27.8445 42.6094Z" fill="white"/>
<path d="M33.7501 43.4531C33.6594 43.4529 33.5694 43.4381 33.4835 43.4092L28.421 41.7217C28.312 41.69 28.2106 41.6365 28.1228 41.5646C28.0349 41.4927 27.9625 41.4039 27.9099 41.3033C27.8572 41.2028 27.8253 41.0927 27.8162 40.9795C27.8071 40.8664 27.8209 40.7526 27.8568 40.6449C27.8927 40.5373 27.9499 40.4379 28.0251 40.3529C28.1003 40.2679 28.1918 40.1989 28.2943 40.15C28.3967 40.1012 28.508 40.0736 28.6214 40.0688C28.7348 40.0639 28.848 40.082 28.9542 40.122L34.0167 41.8095C34.2064 41.8732 34.3672 42.0021 34.4706 42.1734C34.5739 42.3446 34.6131 42.547 34.5811 42.7445C34.549 42.9419 34.4479 43.1216 34.2957 43.2514C34.1435 43.3812 33.9501 43.4527 33.7501 43.4531Z" fill="white"/>
<path d="M33.7516 43.4531C33.5613 43.4535 33.3765 43.3895 33.2271 43.2716C33.0778 43.1536 32.9727 42.9887 32.9289 42.8035C32.8851 42.6183 32.9052 42.4237 32.986 42.2514C33.0667 42.0791 33.2033 41.9391 33.3736 41.8542L35.0611 41.0105C35.2614 40.9104 35.4932 40.8941 35.7056 40.9649C35.8107 41 35.9079 41.0555 35.9916 41.1282C36.0753 41.2008 36.1439 41.2893 36.1934 41.3885C36.243 41.4876 36.2725 41.5956 36.2803 41.7061C36.2881 41.8167 36.2741 41.9278 36.239 42.0329C36.2039 42.138 36.1484 42.2352 36.0757 42.319C36.0031 42.4027 35.9146 42.4712 35.8154 42.5208L34.1279 43.3645C34.011 43.4227 33.8822 43.4531 33.7516 43.4531Z" fill="white"/>
<path d="M37.125 42.6094H35.4375C35.2137 42.6094 34.9991 42.5205 34.8409 42.3622C34.6826 42.204 34.5938 41.9894 34.5938 41.7656C34.5938 41.5418 34.6826 41.3272 34.8409 41.169C34.9991 41.0108 35.2137 40.9219 35.4375 40.9219H37.125C37.3488 40.9219 37.5634 41.0108 37.7216 41.169C37.8799 41.3272 37.9688 41.5418 37.9688 41.7656C37.9688 41.9894 37.8799 42.204 37.7216 42.3622C37.5634 42.5205 37.3488 42.6094 37.125 42.6094Z" fill="white"/>
<path d="M37.1253 42.6094C36.9917 42.6093 36.86 42.5774 36.7411 42.5165C36.6222 42.4555 36.5195 42.3672 36.4414 42.2588C36.3633 42.1504 36.312 42.0249 36.2919 41.8928C36.2717 41.7607 36.2832 41.6258 36.3255 41.499L37.1692 38.9677C37.201 38.8588 37.2544 38.7573 37.3263 38.6695C37.3982 38.5817 37.4871 38.5093 37.5876 38.4566C37.6882 38.4039 37.7983 38.3721 37.9114 38.363C38.0245 38.3538 38.1384 38.3676 38.246 38.4035C38.3537 38.4394 38.453 38.4967 38.5381 38.5718C38.6231 38.647 38.6921 38.7386 38.7409 38.841C38.7897 38.9435 38.8174 39.0548 38.8222 39.1681C38.827 39.2815 38.8089 39.3947 38.769 39.501L37.9252 42.0322C37.8693 42.2002 37.7619 42.3463 37.6184 42.4498C37.4748 42.5534 37.3023 42.6092 37.1253 42.6094Z" fill="white"/>
<path d="M39.6562 40.0781H37.9688C37.745 40.0781 37.5304 39.9892 37.3721 39.831C37.2139 39.6728 37.125 39.4582 37.125 39.2344C37.125 39.0106 37.2139 38.796 37.3721 38.6378C37.5304 38.4795 37.745 38.3906 37.9688 38.3906H39.6562C39.88 38.3906 40.0946 38.4795 40.2529 38.6378C40.4111 38.796 40.5 39.0106 40.5 39.2344C40.5 39.4582 40.4111 39.6728 40.2529 39.831C40.0946 39.9892 39.88 40.0781 39.6562 40.0781Z" fill="white"/>
<path d="M41.3441 41.7656C41.2333 41.7657 41.1236 41.744 41.0212 41.7015C40.9188 41.6591 40.8258 41.5969 40.7476 41.5184L39.0601 39.8309C38.9064 39.6718 38.8214 39.4586 38.8233 39.2374C38.8252 39.0162 38.9139 38.8046 39.0704 38.6481C39.2268 38.4917 39.4384 38.403 39.6597 38.401C39.8809 38.3991 40.094 38.4842 40.2532 38.6379L41.9407 40.3254C42.0586 40.4434 42.139 40.5937 42.1715 40.7573C42.204 40.921 42.1873 41.0906 42.1235 41.2447C42.0596 41.3989 41.9515 41.5307 41.8128 41.6234C41.6741 41.7161 41.511 41.7656 41.3441 41.7656Z" fill="white"/>
<path d="M43.0308 42.6094C42.9002 42.6093 42.7713 42.579 42.6544 42.5208L40.9669 41.677C40.7667 41.577 40.6143 41.4015 40.5434 41.1891C40.4725 40.9768 40.4889 40.745 40.5889 40.5447C40.689 40.3444 40.8645 40.1921 41.0768 40.1212C41.2892 40.0503 41.521 40.0667 41.7213 40.1667L43.4088 41.0105C43.579 41.0953 43.7156 41.2352 43.7964 41.4075C43.8771 41.5797 43.8973 41.7742 43.8536 41.9593C43.8099 42.1445 43.705 42.3094 43.5558 42.4274C43.4065 42.5454 43.221 42.6095 43.0308 42.6094Z" fill="white"/>
<path d="M43.0329 42.6094C42.8426 42.6097 42.6577 42.5458 42.5084 42.4278C42.359 42.3099 42.2539 42.1449 42.2101 41.9597C42.1664 41.7745 42.1865 41.58 42.2672 41.4076C42.3479 41.2353 42.4846 41.0953 42.6549 41.0105L44.3424 40.1667C44.5427 40.0667 44.7745 40.0503 44.9868 40.1212C45.092 40.1563 45.1892 40.2118 45.2729 40.2844C45.3566 40.3571 45.4252 40.4455 45.4747 40.5447C45.5242 40.6439 45.5537 40.7518 45.5615 40.8624C45.5694 40.973 45.5553 41.084 45.5202 41.1891C45.4851 41.2943 45.4296 41.3915 45.357 41.4752C45.2843 41.5589 45.1959 41.6275 45.0967 41.677L43.4092 42.5208C43.2923 42.579 43.1635 42.6093 43.0329 42.6094Z" fill="white"/>
<path d="M44.7188 43.4531C44.495 43.4531 44.2804 43.3642 44.1221 43.206C43.9639 43.0478 43.875 42.8332 43.875 42.6094V40.9219C43.875 40.6981 43.9639 40.4835 44.1221 40.3253C44.2804 40.167 44.495 40.0781 44.7188 40.0781C44.9425 40.0781 45.1571 40.167 45.3154 40.3253C45.4736 40.4835 45.5625 40.6981 45.5625 40.9219V42.6094C45.5625 42.8332 45.4736 43.0478 45.3154 43.206C45.1571 43.3642 44.9425 43.4531 44.7188 43.4531Z" fill="white"/>
<path d="M43.8743 45.182C43.7462 45.1822 43.6197 45.1527 43.5048 45.0959C43.3038 44.9978 43.1499 44.8238 43.0772 44.6122C43.0044 44.4007 43.0186 44.1689 43.1167 43.9678L43.9604 42.2398C44.0076 42.138 44.0746 42.0465 44.1575 41.9709C44.2405 41.8953 44.3377 41.837 44.4434 41.7994C44.5492 41.7618 44.6614 41.7456 44.7735 41.7519C44.8856 41.7583 44.9952 41.7869 45.0961 41.8361C45.197 41.8853 45.287 41.9542 45.361 42.0387C45.4349 42.1231 45.4912 42.2215 45.5267 42.328C45.5621 42.4345 45.5759 42.547 45.5673 42.6589C45.5587 42.7709 45.5279 42.8799 45.4766 42.9798L44.6329 44.7078C44.5637 44.8501 44.4558 44.97 44.3217 45.0538C44.1876 45.1377 44.0325 45.1821 43.8743 45.182Z" fill="white"/>
<path d="M47.2495 46.8282C47.1214 46.8282 46.995 46.7987 46.88 46.7421L43.505 45.0968C43.3038 44.9986 43.1499 44.8244 43.0771 44.6127C43.0043 44.401 43.0186 44.169 43.1169 43.9679C43.2151 43.7667 43.3892 43.6128 43.6009 43.54C43.8127 43.4672 44.0446 43.4815 44.2458 43.5798L47.6208 45.2268C47.792 45.3106 47.9298 45.45 48.0116 45.6222C48.0934 45.7944 48.1146 45.9893 48.0715 46.175C48.0284 46.3607 47.9238 46.5264 47.7745 46.645C47.6252 46.7636 47.4402 46.8282 47.2495 46.8282Z" fill="white"/>
<path d="M47.25 46.7741C47.0262 46.7741 46.8116 46.6852 46.6534 46.527C46.4951 46.3688 46.4062 46.1542 46.4062 45.9304V39.2344C46.4062 39.0106 46.4951 38.796 46.6534 38.6378C46.8116 38.4795 47.0262 38.3906 47.25 38.3906C47.4738 38.3906 47.6884 38.4795 47.8466 38.6378C48.0049 38.796 48.0938 39.0106 48.0938 39.2344V45.9304C48.0938 46.1542 48.0049 46.3688 47.8466 46.527C47.6884 46.6852 47.4738 46.7741 47.25 46.7741Z" fill="white"/>
<path d="M47.2512 40.0781C47.0943 40.0783 46.9404 40.0348 46.8068 39.9524C46.6733 39.8699 46.5653 39.7519 46.4952 39.6115L44.8077 36.2365C44.7077 36.0362 44.6913 35.8044 44.7622 35.5921C44.8331 35.3797 44.9854 35.2042 45.1857 35.1042C45.386 35.0042 45.6178 34.9878 45.8301 35.0587C46.0425 35.1296 46.218 35.2819 46.318 35.4822L48.0055 38.8572C48.0698 38.9859 48.1001 39.1288 48.0936 39.2725C48.0871 39.4162 48.044 39.5559 47.9683 39.6782C47.8927 39.8005 47.787 39.9015 47.6613 39.9715C47.5357 40.0415 47.395 40.0782 47.2512 40.0781Z" fill="white"/>
<path d="M45.5625 36.7031H43.875C43.6512 36.7031 43.4366 36.6142 43.2784 36.456C43.1201 36.2978 43.0312 36.0832 43.0312 35.8594C43.0312 35.6356 43.1201 35.421 43.2784 35.2628C43.4366 35.1045 43.6512 35.0156 43.875 35.0156H45.5625C45.7863 35.0156 46.0009 35.1045 46.1591 35.2628C46.3174 35.421 46.4062 35.6356 46.4062 35.8594C46.4062 36.0832 46.3174 36.2978 46.1591 36.456C46.0009 36.6142 45.7863 36.7031 45.5625 36.7031Z" fill="white"/>
<path d="M43.8765 36.7031C43.7484 36.7029 43.622 36.6736 43.5069 36.6173C43.3918 36.561 43.291 36.4793 43.2122 36.3784C43.1333 36.2774 43.0784 36.1598 43.0518 36.0345C43.0251 35.9092 43.0272 35.7795 43.058 35.6552L43.9018 32.2802C43.9628 32.0708 44.1025 31.8931 44.2916 31.7845C44.4808 31.6758 44.7046 31.6447 44.9162 31.6975C45.1278 31.7503 45.3108 31.883 45.4267 32.0678C45.5426 32.2526 45.5824 32.475 45.5378 32.6885L44.6941 36.0635C44.6487 36.2462 44.5434 36.4085 44.3951 36.5244C44.2467 36.6403 44.0647 36.7032 43.8765 36.7031Z" fill="white"/>
<path d="M44.7204 33.3281C44.5301 33.3285 44.3452 33.2645 44.1959 33.1466C44.0465 33.0286 43.9414 32.8637 43.8976 32.6785C43.8539 32.4933 43.874 32.2987 43.9547 32.1264C44.0354 31.9541 44.1721 31.8141 44.3424 31.7292L47.7174 30.0417C47.9177 29.9417 48.1495 29.9253 48.3618 29.9962C48.5742 30.0671 48.7497 30.2194 48.8497 30.4197C48.9497 30.62 48.9661 30.8518 48.8952 31.0641C48.8243 31.2765 48.672 31.452 48.4717 31.552L45.0967 33.2395C44.9798 33.2977 44.851 33.3281 44.7204 33.3281Z" fill="white"/>
<path d="M48.0941 31.6406C47.9605 31.6405 47.8288 31.6087 47.7099 31.5477C47.591 31.4868 47.4882 31.3984 47.4101 31.29C47.332 31.1816 47.2808 31.0562 47.2606 30.9241C47.2405 30.792 47.252 30.657 47.2942 30.5302L48.138 27.999C48.1697 27.89 48.2232 27.7886 48.2951 27.7008C48.367 27.6129 48.4558 27.5405 48.5564 27.4879C48.6569 27.4352 48.767 27.4033 48.8802 27.3942C48.9933 27.3851 49.1071 27.3989 49.2148 27.4348C49.3225 27.4707 49.4218 27.5279 49.5068 27.6031C49.5918 27.6783 49.6608 27.7698 49.7097 27.8723C49.7585 27.9747 49.7861 28.086 49.7909 28.1994C49.7958 28.3128 49.7777 28.426 49.7377 28.5322L48.894 31.0635C48.838 31.2314 48.7307 31.3775 48.5871 31.4811C48.4436 31.5847 48.2711 31.6405 48.0941 31.6406ZM52.3128 35.0156C52.202 35.0157 52.0923 34.9939 51.9899 34.9515C51.8875 34.9091 51.7946 34.8469 51.7163 34.7684L49.1851 32.2371C49.0314 32.078 48.9463 31.8649 48.9482 31.6436C48.9502 31.4224 49.0389 31.2108 49.1953 31.0544C49.3518 30.8979 49.5634 30.8092 49.7846 30.8073C50.0058 30.8053 50.219 30.8904 50.3781 31.0441L52.9094 33.5753C53.0273 33.6933 53.1077 33.8437 53.1402 34.0073C53.1727 34.1709 53.156 34.3406 53.0922 34.4947C53.0283 34.6489 52.9202 34.7806 52.7815 34.8733C52.6428 34.9661 52.4797 35.0156 52.3128 35.0156Z" fill="white"/>
<path d="M49.7804 32.4844C49.5923 32.4843 49.4096 32.4213 49.2615 32.3054C49.1133 32.1895 49.0082 32.0274 48.9628 31.8448L48.1191 28.4698C48.0707 28.2548 48.1083 28.0294 48.224 27.8418C48.3397 27.6542 48.5241 27.5193 48.738 27.4659C48.9518 27.4126 49.1781 27.445 49.3683 27.5563C49.5585 27.6676 49.6977 27.8489 49.7559 28.0614L50.5997 31.4364C50.6306 31.5608 50.6327 31.6906 50.6059 31.816C50.5792 31.9414 50.5243 32.059 50.4453 32.16C50.3664 32.261 50.2655 32.3427 50.1503 32.3989C50.0351 32.4551 49.9086 32.4843 49.7804 32.4844ZM28.6875 36.7031C28.4903 36.7033 28.2992 36.6343 28.1475 36.5082C27.7206 36.153 17.7188 27.7071 17.7188 18.1406C17.7187 15.2315 18.8744 12.4416 20.9314 10.3845C22.9885 8.32751 25.7784 7.17188 28.6875 7.17188C31.5966 7.17188 34.3865 8.32751 36.4436 10.3845C38.5006 12.4416 39.6563 15.2315 39.6563 18.1406C39.6563 27.7071 29.6536 36.153 29.2275 36.5082C29.0758 36.6343 28.8847 36.7033 28.6875 36.7031ZM28.6875 8.85938C26.2268 8.86206 23.8676 9.84076 22.1276 11.5807C20.3876 13.3207 19.4089 15.6799 19.4063 18.1406C19.4063 25.7124 26.6288 32.8523 28.6875 34.7321C30.7446 32.8506 37.9688 25.7015 37.9688 18.1406C37.9661 15.6799 36.9874 13.3207 35.2474 11.5807C33.5074 9.84076 31.1482 8.86206 28.6875 8.85938Z" fill="white"/>
<path d="M28.6875 24.0469C27.5194 24.0469 26.3774 23.7005 25.4062 23.0515C24.4349 22.4025 23.6779 21.4801 23.2308 20.4009C22.7838 19.3216 22.6668 18.1341 22.8947 16.9884C23.1226 15.8427 23.6852 14.7903 24.5112 13.9643C25.3372 13.1383 26.3896 12.5758 27.5353 12.3479C28.681 12.12 29.8685 12.2369 30.9477 12.684C32.027 13.131 32.9494 13.888 33.5984 14.8593C34.2474 15.8306 34.5938 16.9725 34.5938 18.1406C34.592 19.7065 33.9691 21.2078 32.8619 22.315C31.7546 23.4223 30.2534 24.0451 28.6875 24.0469ZM28.6875 13.9219C27.8531 13.9219 27.0375 14.1693 26.3437 14.6329C25.6499 15.0964 25.1092 15.7553 24.7899 16.5262C24.4706 17.2971 24.387 18.1453 24.5498 18.9637C24.7126 19.782 25.1144 20.5337 25.7044 21.1237C26.2944 21.7137 27.0461 22.1155 27.8645 22.2783C28.6828 22.4411 29.5311 22.3576 30.3019 22.0382C31.0728 21.7189 31.7317 21.1782 32.1953 20.4844C32.6588 19.7907 32.9063 18.975 32.9063 18.1406C32.9049 17.0222 32.46 15.9499 31.6691 15.159C30.8783 14.3681 29.806 13.9232 28.6875 13.9219Z" fill="white"/>
</g>
<defs>
<clipPath id="clip0_11_3669">
<rect width="54" height="54" fill="white"/>
</clipPath>
</defs>
</svg>
