<svg width="0" height="0" class="hidden">
  <symbol xmlns="http://www.w3.org/2000/svg" viewBox="0 0 24 24" id="ic_arr_hor">
    <path d="M15 18L9 12L15 6" stroke="currentColor" stroke-width="2" stroke-linecap="round" stroke-linejoin="round" fill="none"></path>
  </symbol>
  <symbol xmlns="http://www.w3.org/2000/svg" viewBox="0 0 26 23" id="ic_cart">
    <path fill-rule="evenodd" clip-rule="evenodd" d="M8.17001 14.8501H8.17118C8.17216 14.8501 8.17314 14.8497 8.1741 14.8497H21.6435C21.975 14.8497 22.2667 14.6303 22.3577 14.3111L25.3294 3.91635C25.3934 3.69221 25.3485 3.45129 25.2082 3.26542C25.0678 3.07957 24.8482 2.97029 24.6151 2.97029H6.45674L5.9257 0.581672C5.85004 0.2418 5.54862 0 5.20033 0H0.74284C0.332556 0 0 0.33215 0 0.742586C0 1.15258 0.332556 1.48473 0.74284 1.48473H4.60449C4.69846 1.90806 7.1458 12.9154 7.28666 13.5487C6.49718 13.8916 5.94325 14.6785 5.94325 15.5923C5.94325 16.8206 6.9431 17.82 8.17194 17.82H21.6435C22.0538 17.82 22.3864 17.4874 22.3864 17.0774C22.3864 16.667 22.0538 16.3353 21.6435 16.3353H8.17194C7.76244 16.3353 7.42913 16.0019 7.42913 15.5923C7.42913 15.1836 7.76126 14.8514 8.17001 14.8501ZM23.6302 4.455L21.083 13.365H8.76789L6.78672 4.455H23.6302ZM7.42913 20.0477C7.42913 21.276 8.42898 22.2745 9.65782 22.2745C10.8868 22.2745 11.8865 21.276 11.8865 20.0477C11.8865 18.8194 10.8868 17.82 9.65782 17.82C8.42898 17.82 7.42913 18.8194 7.42913 20.0477ZM9.65782 19.3051C10.0674 19.3051 10.4007 19.6381 10.4007 20.0477C10.4007 20.4569 10.0674 20.7898 9.65782 20.7898C9.24832 20.7898 8.91489 20.4569 8.91489 20.0477C8.91489 19.6381 9.24832 19.3051 9.65782 19.3051ZM17.9289 20.0477C17.9289 21.276 18.9288 22.2745 20.1576 22.2745C21.3865 22.2745 22.3864 21.276 22.3864 20.0477C22.3864 18.8194 21.3865 17.82 20.1576 17.82C18.9288 17.82 17.9289 18.8194 17.9289 20.0477ZM20.1576 19.3051C20.5672 19.3051 20.9005 19.6381 20.9005 20.0477C20.9005 20.4569 20.5672 20.7898 20.1576 20.7898C19.7481 20.7898 19.4148 20.4569 19.4148 20.0477C19.4148 19.6381 19.7481 19.3051 20.1576 19.3051Z" fill="currentColor"></path>
  </symbol>
  <symbol xmlns="http://www.w3.org/2000/svg" viewBox="0 0 11 11" id="ic_check">
    <path d="M9.16659 2.75L4.12492 7.79167L1.83325 5.5" stroke="currentColor" stroke-width="2" stroke-linecap="round" stroke-linejoin="round" fill="none"></path>
  </symbol>
  <symbol xmlns="http://www.w3.org/2000/svg" viewBox="0 0 24 24" id="ic_close">
    <path d="M18 6L6 18" stroke="currentColor" stroke-width="2" stroke-linecap="round" stroke-linejoin="round" fill="none"></path>
    <path d="M6 6L18 18" stroke="currentColor" stroke-width="2" stroke-linecap="round" stroke-linejoin="round" fill="none"></path>
  </symbol>
  <symbol xmlns="http://www.w3.org/2000/svg" viewBox="0 0 13 13" id="ic_close2">
    <path fill-rule="evenodd" clip-rule="evenodd" d="M5.28889 6.46148L0.11084 11.6395L0.818139 12.3468L5.99619 7.16878L11.4113 12.5839L12.1186 11.8766L6.70349 6.46148L12.0487 1.11629L11.3414 0.408997L5.99619 5.75418L0.888088 0.646076L0.180789 1.35338L5.28889 6.46148Z" fill="currentColor"></path>
  </symbol>
  <symbol xmlns="http://www.w3.org/2000/svg" viewBox="0 0 16 11" id="ic_menu">
    <path fill-rule="evenodd" clip-rule="evenodd" d="M15.8824 0H0V1.00027H15.8824V0ZM0 4.99967H15.8824V5.99994H0V4.99967ZM0 10.0002H15.8824V11H0V10.0002Z" fill="currentColor"></path>
  </symbol>
  <symbol xmlns="http://www.w3.org/2000/svg" viewBox="0 0 24 24" id="ic_minus">
    <path d="M5 12H19" stroke="currentColor" stroke-width="2" stroke-linecap="round" stroke-linejoin="round" fill="none"></path>
  </symbol>
  <symbol xmlns="http://www.w3.org/2000/svg" viewBox="0 0 24 24" id="ic_phone">
    <path d="M22 16.9201V19.9201C22.0011 20.1986 21.9441 20.4743 21.8325 20.7294C21.7209 20.9846 21.5573 21.2137 21.3521 21.402C21.1468 21.5902 20.9046 21.7336 20.6407 21.8228C20.3769 21.912 20.0974 21.9452 19.82 21.9201C16.7428 21.5857 13.787 20.5342 11.19 18.8501C8.77382 17.3148 6.72533 15.2663 5.18999 12.8501C3.49997 10.2413 2.44824 7.27109 2.11999 4.1801C2.095 3.90356 2.12787 3.62486 2.21649 3.36172C2.30512 3.09859 2.44756 2.85679 2.63476 2.65172C2.82196 2.44665 3.0498 2.28281 3.30379 2.17062C3.55777 2.05843 3.83233 2.00036 4.10999 2.0001H7.10999C7.5953 1.99532 8.06579 2.16718 8.43376 2.48363C8.80173 2.80008 9.04207 3.23954 9.10999 3.7201C9.23662 4.68016 9.47144 5.62282 9.80999 6.5301C9.94454 6.88802 9.97366 7.27701 9.8939 7.65098C9.81415 8.02494 9.62886 8.36821 9.35999 8.6401L8.08999 9.9101C9.51355 12.4136 11.5864 14.4865 14.09 15.9101L15.36 14.6401C15.6319 14.3712 15.9751 14.1859 16.3491 14.1062C16.7231 14.0264 17.1121 14.0556 17.47 14.1901C18.3773 14.5286 19.3199 14.7635 20.28 14.8901C20.7658 14.9586 21.2094 15.2033 21.5265 15.5776C21.8437 15.9519 22.0122 16.4297 22 16.9201Z" stroke="currentColor" stroke-width="2" stroke-linecap="round" stroke-linejoin="round" fill="none"></path>
  </symbol>
  <symbol xmlns="http://www.w3.org/2000/svg" viewBox="0 0 24 24" id="ic_plus">
    <path d="M12 5V19" stroke="currentColor" stroke-width="2" stroke-linecap="round" stroke-linejoin="round" fill="none"></path>
    <path d="M5 12H19" stroke="currentColor" stroke-width="2" stroke-linecap="round" stroke-linejoin="round" fill="none"></path>
  </symbol>
  <symbol xmlns="http://www.w3.org/2000/svg" viewBox="0 0 20 19" id="ic_search">
    <path fill-rule="evenodd" clip-rule="evenodd" d="M18.8505 17.576L15.8444 14.5903C15.8141 14.5601 15.775 14.5472 15.7414 14.5227C18.6687 11.0495 18.4941 5.85495 15.2089 2.59253C13.5256 0.920682 11.2877 0 8.90743 0C6.52691 0 4.28906 0.920682 2.60608 2.59253C-0.868693 6.04296 -0.868693 11.6574 2.60608 15.1078C4.28906 16.7797 6.52691 17.7004 8.90743 17.7004C11.0208 17.7004 13.0197 16.9716 14.6199 15.6387C14.6441 15.6719 14.6574 15.7097 14.6872 15.7398L17.6935 18.7252C17.8532 18.8835 18.0626 18.9626 18.272 18.9626C18.4814 18.9626 18.6911 18.8835 18.8505 18.7252C19.1704 18.4072 19.1704 17.8931 18.8505 17.576ZM8.90743 16.0754C6.96412 16.0754 5.13716 15.3234 3.76328 13.9587C0.92678 11.142 0.92678 6.5588 3.76328 3.74125C5.13716 2.37657 6.96412 1.6254 8.90743 1.6254C10.8505 1.6254 12.6777 2.37657 14.0517 3.74125C16.888 6.5588 16.888 11.142 14.0517 13.9587C12.6773 15.3234 10.8505 16.0754 8.90743 16.0754Z" fill="currentColor"></path>
  </symbol>
  <symbol xmlns="http://www.w3.org/2000/svg" viewBox="0 0 14 12" id="ic_telegram">
    <path d="M0.877606 5.80657L3.76784 6.88428L4.89453 10.5093C4.94352 10.7542 5.23744 10.8032 5.43339 10.6563L7.04995 9.33362C7.19691 9.18666 7.44185 9.18666 7.63779 9.33362L10.528 11.4401C10.724 11.587 11.0179 11.489 11.0669 11.2441L13.2223 0.956874C13.2713 0.71194 13.0263 0.467008 12.7814 0.564982L0.877606 5.16974C0.583685 5.26772 0.583685 5.7086 0.877606 5.80657ZM4.74758 6.34542L10.43 2.86736C10.528 2.81837 10.626 2.96534 10.528 3.01432L5.87427 7.37415C5.72731 7.52111 5.58034 7.71706 5.58034 7.96199L5.43339 9.13767C5.43339 9.28463 5.18845 9.33362 5.13946 9.13767L4.55162 6.98225C4.40466 6.73732 4.50264 6.4434 4.74758 6.34542Z" fill="currentColor"></path>
  </symbol>
  <symbol xmlns="http://www.w3.org/2000/svg" viewBox="0 0 12 11" id="ic_video_play">
    <path d="M12 5.5L0.75 0.73686V10.2631L12 5.5Z" fill="currentColor"></path>
  </symbol>
  <symbol xmlns="http://www.w3.org/2000/svg" viewBox="0 0 14 14" id="ic_whatsapp">
    <path d="M11.554 2.58215C10.3122 1.34465 8.65644 0.65715 6.9087 0.65715C3.27525 0.65715 0.331698 3.59048 0.331698 7.21132C0.331698 8.35715 0.65365 9.50298 1.20557 10.4655L0.285706 13.8572L3.78118 12.9405C4.74703 13.4447 5.80487 13.7197 6.9087 13.7197C10.5422 13.7197 13.4857 10.7863 13.4857 7.16548C13.4397 5.46965 12.7958 3.81965 11.554 2.58215ZM10.0822 9.54882C9.94424 9.91548 9.30034 10.2821 8.97839 10.328C8.70243 10.3738 8.33449 10.3738 7.96654 10.2822C7.73658 10.1905 7.41463 10.0988 7.04668 9.91548C5.39093 9.22798 4.33309 7.57798 4.24111 7.44048C4.14912 7.34882 3.55121 6.56965 3.55121 5.74465C3.55121 4.91965 3.96515 4.55298 4.10313 4.36965C4.24111 4.18632 4.42508 4.18632 4.56306 4.18632C4.65504 4.18632 4.79302 4.18632 4.88501 4.18632C4.97699 4.18632 5.11497 4.14048 5.25295 4.46132C5.39093 4.78215 5.71288 5.60715 5.75887 5.65298C5.80487 5.74465 5.80487 5.83632 5.75887 5.92798C5.71288 6.01965 5.66689 6.11132 5.5749 6.20298C5.48292 6.29465 5.39093 6.43215 5.34494 6.47798C5.25295 6.56965 5.16097 6.66132 5.25295 6.79882C5.34494 6.98215 5.66689 7.48632 6.17281 7.94465C6.81672 8.49465 7.32264 8.67798 7.50661 8.76965C7.69058 8.86132 7.78257 8.81548 7.87455 8.72382C7.96654 8.63215 8.28849 8.26548 8.38048 8.08215C8.47247 7.89882 8.61044 7.94465 8.74842 7.99048C8.8864 8.03632 9.71428 8.44882 9.85226 8.54048C10.0362 8.63215 10.1282 8.67798 10.1742 8.72382C10.2202 8.86132 10.2202 9.18215 10.0822 9.54882Z" fill="currentColor"></path>
  </symbol>
</svg>